<svg width="192" height="83" viewBox="0 0 192 83" fill="none" xmlns="http://www.w3.org/2000/svg">
<path d="M24.6524 49.4981C24.6524 32.2349 29.4954 29.9229 29.4954 29.9229V27.4568H24.9649C25.2773 25.6071 27.7769 19.75 28.558 17.5921C28.558 17.5921 28.558 17.5921 28.558 17.438C28.8705 16.5131 28.2456 15.5883 26.9958 15.2801L21.9966 14.2011L20.5906 10.5019H23.8713L25.1211 7.26503H20.4344L21.6842 3.41165L18.5597 0.174805L15.4352 3.41165L16.5288 7.26503H11.8421L13.0919 10.5019H16.3726L14.9666 14.2011L9.81117 15.4342C8.7176 15.7425 7.93648 16.6673 8.24893 17.5921C8.24893 17.5921 8.24893 17.5921 8.24893 17.7462C9.18627 19.9041 11.5296 25.7613 11.9983 27.6109H7.46781V30.0771C7.46781 30.0771 12.3107 32.3891 12.3107 49.6522C12.3107 64.1409 0.750183 73.5432 0.750183 73.5432V82.1748H18.4035H36.0568V73.5432C36.213 73.5432 24.6524 64.141 24.6524 49.4981Z" fill="#343949"/>
<path d="M44.3416 27.7646V82.1744" stroke="#C1D6E2" stroke-width="1.24395" stroke-miterlimit="10"/>
<path d="M68.2373 67.9943V69.5357H66.9875V67.9943C66.9875 65.9906 66.2063 64.6034 63.863 64.6034C61.5196 64.6034 60.7385 66.1447 60.7385 67.9943V77.3966C60.7385 79.4004 61.5196 80.7876 63.863 80.7876C66.2063 80.7876 66.9875 79.4004 66.9875 77.3966V75.2387H68.2373V77.3966C68.2373 80.0169 66.9875 82.0207 63.7068 82.0207C60.4261 82.0207 59.1763 80.0169 59.1763 77.3966V68.1485C59.1763 65.5282 60.4261 63.5244 63.7068 63.5244C66.9875 63.5244 68.2373 65.374 68.2373 67.9943Z" fill="#343949"/>
<path d="M73.8594 67.9937C73.8594 65.3734 75.2654 63.3696 78.3899 63.3696C81.5143 63.3696 82.9204 65.3734 82.9204 67.9937V77.2418C82.9204 79.8621 81.5143 81.8659 78.3899 81.8659C75.2654 81.8659 73.8594 79.8621 73.8594 77.2418V67.9937ZM75.2654 77.3959C75.2654 79.3997 76.2027 80.7869 78.3899 80.7869C80.577 80.7869 81.6706 79.3997 81.6706 77.3959V67.9937C81.6706 65.9899 80.7332 64.6027 78.3899 64.6027C76.0465 64.6027 75.2654 65.9899 75.2654 67.9937V77.3959Z" fill="#343949"/>
<path d="M89.9497 81.7124H88.6999V63.5244H90.4184L96.6673 78.9379V63.5244H97.9171V81.7124H96.3549L89.7935 65.5282C89.9497 65.5282 89.9497 81.7124 89.9497 81.7124Z" fill="#343949"/>
<path d="M112.455 67.9937V68.302H111.205V67.8395C111.205 65.9899 110.424 64.4486 108.08 64.4486C105.737 64.4486 104.956 65.8358 104.956 67.8395C104.956 72.3095 112.455 72.3095 112.455 77.3959C112.455 80.0162 111.205 82.02 107.924 82.02C104.643 82.02 103.394 80.1704 103.394 77.3959V76.4711H104.643V77.3959C104.643 79.3997 105.581 80.7869 107.768 80.7869C109.955 80.7869 110.892 79.3997 110.892 77.3959C110.892 73.0802 103.394 72.926 103.394 67.8395C103.394 65.0651 104.8 63.3696 107.768 63.3696C111.205 63.3696 112.455 65.3734 112.455 67.9937Z" fill="#343949"/>
<path d="M119.483 77.3971C119.483 79.4008 120.264 80.7881 122.608 80.7881C124.951 80.7881 125.732 79.2467 125.732 77.3971V63.5249H126.982V77.2429C126.982 79.8633 125.732 81.867 122.608 81.867C119.483 81.867 118.233 79.8633 118.233 77.2429V63.5249H119.483V77.3971Z" fill="#343949"/>
<path d="M132.764 81.7124V63.5244H134.17V80.6334H140.731V81.7124H132.764Z" fill="#343949"/>
<path d="M148.223 81.7129V64.6039H144.005V63.5249H153.847V64.6039H149.629V81.7129H148.223Z" fill="#343949"/>
<path d="M160.415 63.5244V81.7124H159.009V63.5244H160.415Z" fill="#343949"/>
<path d="M167.596 81.7129H166.346V63.5249H168.065L174.314 78.9384V63.5249H175.564V81.7129H174.001L167.44 65.5287L167.596 81.7129Z" fill="#343949"/>
<path d="M190.251 67.9943V69.3816H189.001V67.9943C189.001 65.9906 188.064 64.6034 185.877 64.6034C183.689 64.6034 182.752 66.1447 182.752 67.9943V77.3966C182.752 79.4004 183.689 80.7876 185.877 80.7876C188.064 80.7876 189.001 79.4004 189.001 77.3966V73.5432H186.189V72.4643H190.251V77.3966C190.251 80.0169 189.001 82.0207 185.72 82.0207C182.44 82.0207 181.19 80.0169 181.19 77.3966V68.1485C181.19 65.5282 182.44 63.5244 185.72 63.5244C189.001 63.5244 190.251 65.374 190.251 67.9943Z" fill="#343949"/>
<path d="M73.5489 34.7006V35.7795C73.5489 38.8622 72.6115 40.866 70.4244 41.7908V41.9449C73.0802 42.8697 74.0175 45.1818 74.0175 48.4186V50.8848C74.0175 55.5088 71.5179 57.975 66.675 57.975H59.1763V27.6104H66.3626C71.3617 27.6104 73.5489 29.9224 73.5489 34.7006ZM64.0192 31.9261V39.9412H65.8939C67.6124 39.9412 68.7059 39.1705 68.7059 36.7043V35.0088C68.7059 32.851 67.9248 31.9261 66.2063 31.9261H64.0192ZM64.0192 44.257V53.5051H66.8312C68.3935 53.5051 69.3308 52.7344 69.3308 50.5765V47.9562C69.3308 45.1818 68.3935 44.257 66.2063 44.257H64.0192Z" fill="#C00004"/>
<path d="M81.6689 40.4036H88.2303V44.7194H81.6689V53.5051H89.9487V57.8209H76.8259V27.6104H89.9487V31.9261H81.6689V40.4036Z" fill="#C00004"/>
<path d="M90.5759 27.6104H105.417V31.9261H100.418V57.8209H95.575V31.9261H90.5759V27.6104Z" fill="#C00004"/>
<path d="M105.58 40.5576H114.328V44.8734H105.58V40.5576Z" fill="#C00004"/>
<path d="M117.142 27.6104H124.797C129.64 27.6104 131.983 30.2307 131.983 35.0088V50.2682C131.983 55.0464 129.64 57.6667 124.797 57.6667H117.142V27.6104ZM121.828 31.9261V53.5051H124.484C126.046 53.5051 126.984 52.7344 126.984 50.5765V34.8547C126.984 32.6968 126.046 31.9261 124.484 31.9261H121.828Z" fill="#C00004"/>
<path d="M149.941 57.8209H145.098L144.317 52.272H138.381L137.6 57.8209H133.225L138.068 27.6104H145.098L149.941 57.8209ZM139.006 48.2645H143.692L141.349 33.0051H141.193L139.006 48.2645Z" fill="#C00004"/>
<path d="M157.757 52.272L161.506 27.6104H165.881L161.194 57.8209H154.008L149.321 27.6104H154.164L157.757 52.272Z" fill="#C00004"/>
<path d="M168.22 27.6104H173.063V57.8209H168.22V27.6104Z" fill="#C00004"/>
<path d="M176.503 27.6108H184.158C189.001 27.6108 191.344 30.2311 191.344 35.0093V50.2687C191.344 55.0469 189.001 57.6672 184.158 57.6672H176.503V27.6108ZM181.346 31.9266V53.5056H184.002C185.564 53.5056 186.501 52.7349 186.501 50.577V34.8552C186.501 32.6973 185.564 31.9266 184.002 31.9266H181.346Z" fill="#C00004"/>
</svg>
