<svg width="75" height="75" viewBox="0 0 75 75" fill="none" xmlns="http://www.w3.org/2000/svg">
<circle cx="37.9044" cy="37.2539" r="37" fill="#343949"/>
<path d="M57.0001 37.6126C57.0001 46.9189 50.0283 54.6491 40.9114 56V43.0162H45.355L46.1977 37.6126H40.9114V34.1602C40.9114 32.6592 41.6775 31.2333 44.0525 31.2333H46.4275V26.6552C46.4275 26.6552 44.2824 26.2799 42.1372 26.2799C37.8469 26.2799 35.0122 28.9067 35.0122 33.5598V37.6126H30.1856V43.0162H35.0122V56C25.8953 54.6491 19.0001 46.9189 19.0001 37.6126C19.0001 27.3306 27.5042 19 38.0001 19C48.4961 19 57.0001 27.3306 57.0001 37.6126Z" fill="white"/>
</svg>
