<svg width="74" height="75" viewBox="0 0 74 75" fill="none" xmlns="http://www.w3.org/2000/svg">
<circle cx="37.0045" cy="37.2539" r="37" fill="#343949"/>
<path d="M37.3691 55.8102C37.2469 55.8102 37.1247 55.8102 37.0017 55.8096C34.1097 55.8167 31.4375 55.7428 28.8388 55.5836C26.4563 55.4378 24.2814 54.6096 22.5492 53.1887C20.8776 51.8178 19.7362 49.964 19.1567 47.6796C18.6522 45.6908 18.6255 43.7384 18.5998 41.8501C18.5812 40.4953 18.5621 38.8898 18.5582 37.2572C18.5621 35.6178 18.5812 34.0123 18.5998 32.6574C18.6255 30.7694 18.6522 28.8171 19.1567 26.828C19.7362 24.5435 20.8777 22.6898 22.5492 21.3188C24.2814 19.8979 26.4563 19.0698 28.839 18.9239C31.4377 18.7651 34.1105 18.6909 37.0087 18.698C39.9016 18.6917 42.5729 18.7651 45.1716 18.9239C47.5542 19.0698 49.729 19.898 51.4613 21.3188C53.133 22.6898 54.2742 24.5435 54.8538 26.828C55.3582 28.8168 55.3849 30.7694 55.4105 32.6574C55.4291 34.0123 55.4486 35.6178 55.4522 37.2504V37.2572C55.4486 38.8898 55.4291 40.4953 55.4105 41.8501C55.385 43.7381 55.3585 45.6904 54.8538 47.6796C54.2742 49.964 53.133 51.8178 51.4613 53.1888C49.7289 54.6097 47.5541 55.4378 45.1716 55.5836C42.683 55.736 40.1265 55.8102 37.3691 55.8102ZM37.0017 52.9101C39.8466 52.917 42.4589 52.8448 44.9966 52.6896C46.7981 52.5794 48.3601 51.9913 49.6397 50.9417C50.8225 49.9714 51.6373 48.6326 52.0608 46.9626C52.4808 45.307 52.505 43.5295 52.5284 41.8105C52.5467 40.4647 52.5658 38.8706 52.5697 37.2538C52.5658 35.6367 52.5467 34.0429 52.5284 32.6971C52.505 30.9781 52.4808 29.2005 52.0608 27.5447C51.6372 25.8746 50.8225 24.5359 49.6397 23.5655C48.3601 22.5162 46.7981 21.9281 44.9966 21.8179C42.4589 21.6625 39.8467 21.5909 37.0084 21.5971C34.1639 21.5903 31.5515 21.6625 29.0139 21.818C27.2123 21.9282 25.6503 22.5162 24.3707 23.5656C23.1878 24.5359 22.3732 25.8747 21.9495 27.5447C21.5296 29.2005 21.5054 30.9778 21.482 32.6971C21.4637 34.044 21.4445 35.639 21.4406 37.2572C21.4446 38.8683 21.4637 40.4635 21.482 41.8105C21.5054 43.5295 21.5296 45.3071 21.9495 46.9626C22.3733 48.6327 23.1878 49.9714 24.3707 50.9417C25.6503 51.991 27.2123 52.5792 29.0139 52.6894C31.5515 52.8448 34.1645 52.9173 37.0017 52.9101ZM36.933 46.3145C31.9664 46.3145 27.9253 42.2499 27.9253 37.2538C27.9253 32.2576 31.9664 28.193 36.933 28.193C41.8999 28.193 45.9407 32.2576 45.9407 37.2538C45.9407 42.2499 41.8999 46.3145 36.933 46.3145ZM36.933 31.0925C33.5557 31.0925 30.8078 33.8566 30.8078 37.2538C30.8078 40.651 33.5557 43.4151 36.933 43.4151C40.3106 43.4151 43.0582 40.651 43.0582 37.2538C43.0582 33.8566 40.3106 31.0925 36.933 31.0925ZM46.9495 25.2936C45.7558 25.2936 44.7877 26.2671 44.7877 27.4682C44.7877 28.6693 45.7558 29.6428 46.9495 29.6428C48.1436 29.6428 49.1114 28.6693 49.1114 27.4682C49.1114 26.2671 48.1436 25.2936 46.9495 25.2936Z" fill="white"/>
</svg>
