<svg width="27" height="28" viewBox="0 0 27 28" fill="none" xmlns="http://www.w3.org/2000/svg">
<path d="M13.4703 6.93336C17.2403 6.93336 20.352 10.0451 20.352 13.815C20.352 17.6448 17.2403 20.6967 13.4703 20.6967C9.64052 20.6967 6.58866 17.6448 6.58866 13.815C6.58866 10.0451 9.64052 6.93336 13.4703 6.93336ZM13.4703 18.303C15.9238 18.303 17.8985 16.3283 17.8985 13.815C17.8985 11.3616 15.9238 9.38682 13.4703 9.38682C10.957 9.38682 8.98228 11.3616 8.98228 13.815C8.98228 16.3283 11.0169 18.303 13.4703 18.303ZM22.207 6.694C22.207 5.79639 21.4889 5.07831 20.5913 5.07831C19.6937 5.07831 18.9756 5.79639 18.9756 6.694C18.9756 7.5916 19.6937 8.30969 20.5913 8.30969C21.4889 8.30969 22.207 7.5916 22.207 6.694ZM26.7549 8.30969C26.8746 10.5238 26.8746 17.1661 26.7549 19.3802C26.6352 21.5344 26.1565 23.3895 24.6006 25.0052C23.0448 26.561 21.1299 27.0397 18.9756 27.1594C16.7615 27.2791 10.1192 27.2791 7.90515 27.1594C5.75089 27.0397 3.89584 26.561 2.28015 25.0052C0.724298 23.3895 0.245574 21.5344 0.125893 19.3802C0.0062126 17.1661 0.0062126 10.5238 0.125893 8.30969C0.245574 6.15543 0.724298 4.24054 2.28015 2.68469C3.89584 1.12884 5.75089 0.650115 7.90515 0.530434C10.1192 0.410754 16.7615 0.410754 18.9756 0.530434C21.1299 0.650115 23.0448 1.12884 24.6006 2.68469C26.1565 4.24054 26.6352 6.15543 26.7549 8.30969ZM23.8825 21.7139C24.6006 19.9786 24.4211 15.7897 24.4211 13.815C24.4211 11.9001 24.6006 7.71129 23.8825 5.91607C23.4038 4.7791 22.5062 3.82166 21.3692 3.40277C19.574 2.68469 15.3852 2.86421 13.4703 2.86421C11.4956 2.86421 7.30674 2.68469 5.57137 3.40277C4.37456 3.8815 3.47696 4.7791 2.99823 5.91607C2.28015 7.71129 2.45967 11.9001 2.45967 13.815C2.45967 15.7897 2.28015 19.9786 2.99823 21.7139C3.47696 22.9108 4.37456 23.8084 5.57137 24.2871C7.30674 25.0052 11.4956 24.8256 13.4703 24.8256C15.3852 24.8256 19.574 25.0052 21.3692 24.2871C22.5062 23.8084 23.4637 22.9108 23.8825 21.7139Z" fill="white"/>
</svg>
