<svg width="75" height="75" viewBox="0 0 75 75" fill="none" xmlns="http://www.w3.org/2000/svg">
<circle cx="37.2048" cy="37.2539" r="37" fill="#343949"/>
<path d="M51.8477 21.2539C53.0999 21.2539 54.2048 22.3588 54.2048 23.6847V51.8968C54.2048 53.2227 53.0999 54.2539 51.8477 54.2539H23.4883C22.2361 54.2539 21.2048 53.2227 21.2048 51.8968V23.6847C21.2048 22.3588 22.2361 21.2539 23.4883 21.2539H51.8477ZM31.149 49.5396V33.8499H26.2874V49.5396H31.149ZM28.7182 31.6401C30.2651 31.6401 31.5173 30.3878 31.5173 28.841C31.5173 27.2941 30.2651 25.9682 28.7182 25.9682C27.0977 25.9682 25.8455 27.2941 25.8455 28.841C25.8455 30.3878 27.0977 31.6401 28.7182 31.6401ZM49.4905 49.5396V40.9213C49.4905 36.7227 48.533 33.4079 43.5977 33.4079C41.2405 33.4079 39.62 34.7338 38.9571 35.986H38.8834V33.8499H34.2428V49.5396H39.1044V41.8052C39.1044 39.7427 39.4727 37.7539 42.0508 37.7539C44.5553 37.7539 44.5553 40.111 44.5553 41.8789V49.5396H49.4905Z" fill="white"/>
</svg>
