<svg width="196" height="40" viewBox="0 0 196 40" fill="none" xmlns="http://www.w3.org/2000/svg">
<path fill-rule="evenodd" clip-rule="evenodd" d="M13.3408 3.00517C9.22358 5.39681 5.10631 7.77332 0.973913 10.1498C0.746858 10.2709 0.656036 10.4072 0.656036 10.6796V25.529V25.9831C0.752626 25.9295 0.818779 25.8986 0.870681 25.8744C0.891982 25.8645 0.910883 25.8557 0.928502 25.8469C1.20868 25.6827 1.4904 25.5153 1.77316 25.3474C2.37646 24.9891 2.98454 24.6279 3.59261 24.2878C3.86508 24.1364 3.97104 23.9699 3.97104 23.6369C3.9559 20.004 3.9559 16.356 3.9559 12.708C3.9559 12.3901 4.01645 12.2085 4.31919 12.0571C4.68248 11.8754 5.03231 11.6669 5.38214 11.4583C5.55706 11.3541 5.73198 11.2498 5.90857 11.1489C6.5643 10.7719 7.21957 10.3954 7.87444 10.0191C10.9536 8.24984 14.0242 6.48547 17.0948 4.70051C17.337 4.54914 17.5338 4.54914 17.776 4.70051C18.4571 5.12435 19.1534 5.51791 19.8497 5.91147C23.4217 7.98503 26.9937 10.0434 30.5656 12.1019L30.5667 12.1025C30.5811 12.1116 30.5952 12.1204 30.6091 12.129C30.7557 12.2204 30.8695 12.2912 30.8695 12.5263V20.0646C30.8695 20.1857 30.7787 20.3522 30.6727 20.4127C30.0292 20.8054 29.3778 21.1823 28.7242 21.5605C28.4707 21.7072 28.217 21.8541 27.9632 22.0021C27.9066 22.0304 27.8499 22.0528 27.7896 22.0767C27.7532 22.0911 27.7155 22.1061 27.6756 22.1232V21.6237V14.5093C27.6756 14.3579 27.6302 14.146 27.5242 14.0855C26.8693 13.68 26.2072 13.2888 25.5527 12.9022C25.2542 12.7258 24.9573 12.5504 24.6633 12.375C23.86 13.1682 23.0584 13.9598 22.2568 14.7513C20.6416 16.3464 19.0263 17.9414 17.3976 19.5499L10.1923 12.3447C10.135 12.3797 10.0778 12.4146 10.0208 12.4494C9.18839 12.9575 8.37914 13.4515 7.54337 13.9189C7.24063 14.0855 7.13467 14.2822 7.13467 14.6304C7.14981 18.2631 7.14981 21.911 7.14981 25.559V25.5593C7.14981 25.8318 7.07412 25.968 6.84707 26.1042C5.62097 26.8005 4.41001 27.5271 3.19905 28.2537C2.82785 28.4737 2.45664 28.6967 2.0826 28.9215C1.633 29.1918 1.1793 29.4644 0.716584 29.7371C0.741817 29.7573 0.762001 29.7741 0.778822 29.7881C0.812455 29.8162 0.832636 29.833 0.852817 29.8431C6.31727 32.9916 11.7817 36.1249 17.2462 39.2583C17.3521 39.3188 17.5641 39.2885 17.6852 39.228C18.109 38.9858 18.5329 38.7398 18.9568 38.4938C19.3806 38.2478 19.8044 38.0019 20.2282 37.7597L20.2299 37.7587C24.7856 35.1252 29.3412 32.4917 33.8969 29.8733C34.1088 29.7371 34.1845 29.6009 34.1845 29.3587V26.2556C34.1845 26.1984 34.1777 26.1412 34.1706 26.0809C34.1626 26.0134 34.1542 25.9419 34.1542 25.862C34.0826 25.9068 34.0269 25.9356 33.9777 25.9611C33.9436 25.9788 33.9127 25.9948 33.8817 26.0134C31.2026 27.5725 28.5197 29.1277 25.8368 30.683C23.1536 32.2384 20.4705 33.7938 17.7911 35.3529C17.5489 35.4892 17.3673 35.5043 17.11 35.3529C15.1755 34.2185 13.2222 33.0935 11.2723 31.9705C10.7505 31.67 10.2289 31.3696 9.70796 31.0692C9.28952 30.823 8.87108 30.5813 8.44782 30.3368C8.0902 30.1303 7.72914 29.9217 7.36173 29.7068C7.68323 29.5159 7.99973 29.3267 8.31344 29.1392C8.94502 28.7616 9.5653 28.3907 10.1923 28.0266C10.4345 27.8904 10.5102 27.7239 10.5102 27.4514V18.127V17.6275C10.5405 17.6124 10.567 17.601 10.5935 17.5897C10.62 17.5783 10.6465 17.567 10.6767 17.5518C11.3966 18.2863 12.1164 19.0222 12.8388 19.7608C14.3645 21.3208 15.9014 22.8922 17.4732 24.4846C18.6256 23.3247 19.7703 22.1761 20.917 21.0257C22.0598 19.8791 23.2045 18.7306 24.3606 17.567V27.7996C24.433 27.7582 24.4771 27.738 24.5171 27.7197C24.5357 27.7113 24.5533 27.7032 24.5725 27.6936C27.7058 25.8923 30.8241 24.091 33.9423 22.2897C34.1391 22.1837 34.1996 22.0475 34.1996 21.8356V10.6342C34.1996 10.4072 34.1088 10.2861 33.912 10.165C33.2913 9.81524 32.6806 9.46046 32.0713 9.10647C31.6257 8.8476 31.1808 8.58914 30.7332 8.33339C26.3889 5.82065 22.0446 3.30791 17.7154 0.780031C17.5187 0.658935 17.3673 0.658935 17.1705 0.780031C16.1216 1.4044 15.0726 2.00816 14.0152 2.61681C13.7908 2.74596 13.5661 2.87533 13.3408 3.00517ZM171.357 15.3417C170.191 12.95 168.057 11.7845 165.393 11.7845C161.048 11.7845 157.96 14.9784 157.96 19.9887C157.96 24.9991 161.063 28.193 165.393 28.193C168.057 28.193 170.176 27.0274 171.357 24.6055H177.078C175.413 29.7218 170.933 32.6433 165.423 32.6433C158.278 32.6433 152.844 27.421 152.844 19.9887C152.844 12.5565 158.278 7.30393 165.423 7.30393C170.933 7.30393 175.413 10.2556 177.078 15.3417H171.357ZM103.572 24.6503L92.295 7.57575H87.33V32.4307H92.295V15.4016L103.572 32.4307H108.537V7.57575H103.572V24.6503ZM53.5449 7.62201L61.4313 26.0589L69.3177 7.62201H74.9335V32.4315H69.9534V16.2955L63.3083 32.4315H59.5392L52.8638 16.2955V32.4315H47.8837V7.62201H53.5449ZM78.6873 7.62201H83.6673V32.4315H78.6873V7.62201ZM117.257 7.57575L128.519 24.6503V7.57575H133.499V32.4307H128.519L117.257 15.4016V32.4307H112.277V7.57575H117.257ZM137.221 32.4307H151.616V28.374H142.201V21.8045H150.557V17.8538H142.201V11.6325H151.616V7.57575H137.221V32.4307ZM177.502 7.62201V11.6333H184.102V32.4315H189.082V11.6333H195.697V7.62201H177.502Z" fill="#343949"/>
</svg>
