<svg width="91" height="52" viewBox="0 0 91 52" fill="none" xmlns="http://www.w3.org/2000/svg">
<path fill-rule="evenodd" clip-rule="evenodd" d="M60.0151 0.628662H73.8655C77.0745 0.628662 79.9203 1.219 82.4179 2.41483C84.9003 3.61065 86.8379 5.32113 88.2002 7.53113C89.5625 9.74113 90.2588 12.3144 90.2588 15.2813C90.2588 18.2481 89.5777 20.8214 88.2153 23.0314C86.853 25.2414 84.9155 26.9368 82.433 28.1477C79.9505 29.3435 77.1048 29.949 73.8806 29.949H60.0151V0.628662ZM73.5476 23.3342C76.0603 23.3342 78.0735 22.6227 79.6024 21.1998C81.1312 19.777 81.8881 17.8092 81.8881 15.2964C81.8881 12.7837 81.1312 10.8159 79.6024 9.39298C78.0735 7.97011 76.0603 7.25867 73.5476 7.25867H68.3102V23.3493H73.5476V23.3342ZM25.5174 5.74509C24.4578 4.1103 22.9441 2.85392 20.9914 1.97598H21.0065C19.0539 1.09803 16.7379 0.65906 14.0889 0.65906H0.677543L0.69268 29.9946H8.95748V22.3201H14.0738C16.7379 22.3201 19.0387 21.8811 20.9914 21.0032C22.9441 20.1252 24.4578 18.8689 25.5174 17.2492C26.5769 15.6295 27.1067 13.7223 27.1067 11.5123C27.1067 9.30229 26.5769 7.37989 25.5174 5.74509ZM18.736 11.5123C18.736 12.8746 18.297 13.9342 17.4342 14.6759C16.5563 15.4176 15.2847 15.7961 13.5743 15.7961H8.97262V7.19824H13.5743C15.2847 7.19824 16.5714 7.57667 17.4342 8.33352C18.297 9.07523 18.736 10.15 18.736 11.5123ZM57.3644 21.9265C57.3644 20.1555 56.8951 18.6569 55.9415 17.4157H55.9566C55.003 16.1745 53.7012 15.2663 52.021 14.6759C53.2774 14.0402 54.2462 13.1622 54.9273 12.0572C55.6085 10.9522 55.9566 9.69585 55.9566 8.30324C55.9566 5.95701 54.9727 4.09516 53.0201 2.71769C51.0674 1.34023 48.2065 0.65906 44.4677 0.65906H29.4669V29.9794H45.3002C49.2055 29.9794 52.1875 29.268 54.2613 27.8754C56.3351 26.4828 57.3644 24.4998 57.3644 21.9265ZM37.6712 12.2994V6.63817L37.6863 6.65331H43.3778C46.1781 6.65331 47.5707 7.57667 47.5707 9.45366C47.5707 11.3458 46.1781 12.2994 43.3778 12.2994H37.6712ZM44.6342 18.0363C47.5405 18.0363 48.9936 19.0202 48.9936 21.0032C48.9936 22.9861 47.5405 23.9852 44.6342 23.9852H37.6712V18.0363H44.6342ZM33.1006 38.5917H33.9634C34.4629 38.5917 34.7505 38.849 34.7505 39.5453V44.6465C34.7505 45.3428 34.4478 45.6001 33.9634 45.6001H33.1006V38.5917ZM22.0352 38.471C21.5508 38.471 21.2329 38.7434 21.2329 39.4397V44.7377C21.2329 45.434 21.5357 45.7065 22.0352 45.7065C22.5347 45.7065 22.8375 45.434 22.8375 44.7377V39.4397C22.8375 38.7434 22.5347 38.471 22.0352 38.471ZM9.83491 38.5917H10.5615V38.6068C11.0459 38.6068 11.3183 38.8339 11.3183 39.5302V40.9985C11.3183 41.6948 11.0459 41.9218 10.5615 41.9218H9.83491V38.5917ZM56.502 43.8901H57.9854L57.2437 38.9252L56.502 43.8901ZM0.510132 51.3523V32.8398H90.4239V51.3523H0.510132ZM10.5611 43.3146C12.1051 43.3146 12.8619 42.4669 12.8619 40.8927V40.8775V39.606C12.8619 38.0469 12.1051 37.1841 10.5611 37.1841H8.29055V47.008H9.83452V43.3146H10.5611ZM22.0349 47.114C23.5486 47.114 24.3812 46.2209 24.3812 44.6467V39.5455C24.3812 37.9712 23.5486 37.0782 22.0349 37.0782C20.5212 37.0782 19.6887 37.9712 19.6887 39.5455V44.6467C19.6887 46.2209 20.5212 47.114 22.0349 47.114ZM33.9932 46.9929C35.5371 46.9929 36.294 46.1452 36.294 44.571V44.5558V39.5909C36.294 38.0318 35.5371 37.169 33.9932 37.169H31.5561V46.9929H33.9932ZM46.4661 40.484H47.9192V40.4688V39.5152C47.9192 37.941 47.1321 37.0479 45.6184 37.0479C44.1047 37.0479 43.3176 37.941 43.3176 39.5152V44.6164C43.3176 46.1906 44.1047 47.0837 45.6184 47.0837C47.1321 47.0837 47.9192 46.1906 47.9192 44.6164V43.3146H46.4661V44.7223C46.4661 45.4186 46.1633 45.676 45.6638 45.676C45.1643 45.676 44.8615 45.4186 44.8615 44.7223V39.4244C44.8615 38.7281 45.1643 38.4556 45.6638 38.4556C46.1633 38.4556 46.4661 38.7281 46.4661 39.4244V40.484ZM58.1972 45.2067L58.4697 46.9929H60.0137L58.4394 37.169H56.184L54.6098 46.9929H56.0326L56.3051 45.2067H58.1972ZM66.6739 44.6315C66.6739 46.2058 67.4611 47.0989 68.9748 47.0989V47.0837C70.4885 47.0837 71.2756 46.1906 71.2756 44.6164C71.2756 43.0909 70.3913 42.2808 69.5809 41.5386C68.8957 40.9109 68.2633 40.3317 68.2633 39.4093C68.2633 38.713 68.5509 38.4405 69.0353 38.4405C69.5197 38.4405 69.8073 38.713 69.8073 39.4093V39.818H71.2605V39.5152C71.2605 37.941 70.4885 37.0479 68.9899 37.0479C67.4913 37.0479 66.7194 37.941 66.7194 39.5152C66.7194 41.0407 67.6037 41.8508 68.414 42.593C69.0993 43.2207 69.7316 43.7999 69.7316 44.7223C69.7316 45.4186 69.4289 45.676 68.9294 45.676C68.4298 45.676 68.1271 45.4186 68.1271 44.7223V44.026H66.6739V44.6315ZM81.039 38.5767H82.6435V37.169H77.8753V38.5767H79.495V46.9929H81.039V38.5767Z" fill="#343949"/>
</svg>
