<svg width="137" height="44" viewBox="0 0 137 44" fill="none" xmlns="http://www.w3.org/2000/svg">
<path fill-rule="evenodd" clip-rule="evenodd" d="M17.2975 34.5518C17.261 34.8419 17.2244 35.1325 17.1956 35.4242H17.2108C17.0897 36.5141 17.1956 37.4526 17.4378 38.497C7.64418 37.5585 0 29.3997 0 19.4547C0 11.3715 5.05576 4.46907 12.2004 1.62331C11.9431 2.84941 11.716 4.07551 11.5344 5.31674C11.5156 5.43719 11.4939 5.56045 11.4721 5.68512C11.406 6.0618 11.3376 6.45137 11.3376 6.8153C11.3219 7.20785 11.408 7.60447 11.4945 8.00304C11.5748 8.37294 11.6555 8.74454 11.6555 9.11613C11.716 9.52483 11.7766 9.93352 12.049 10.2363C12.186 10.3797 12.3595 10.4839 12.532 10.5874C12.7598 10.7242 12.9859 10.8599 13.1238 11.0839C13.2244 11.2584 13.2537 11.4686 13.2828 11.6776C13.3193 11.94 13.3555 12.2004 13.5325 12.3857C13.6573 12.5179 13.8319 12.5895 14.0063 12.661C14.1915 12.7369 14.3765 12.8128 14.5012 12.9609C14.6072 13.0972 14.6677 13.2788 14.7132 13.4453C15.243 15.3223 15.8787 17.169 16.6204 18.9703C17.0745 18.7584 17.5741 18.4708 17.6346 17.9864C17.6649 17.8048 17.6195 17.6383 17.5741 17.4717C17.4966 17.167 17.3944 16.8481 17.2904 16.5236C17.0897 15.8971 16.8822 15.2494 16.8323 14.6411C16.8323 14.5654 16.5145 10.5996 16.5145 10.5996C16.8778 10.2817 17.0291 10.5996 17.0594 10.9628C17.0775 11.1543 17.0921 11.3424 17.1065 11.5284C17.1527 12.1218 17.1972 12.6947 17.347 13.2939C17.5455 14.0725 17.8171 14.828 18.088 15.5818C18.3544 16.3228 18.6202 17.062 18.8153 17.8199C18.9212 18.1983 19.1029 18.6676 19.4965 18.6676C19.7084 18.6676 19.89 18.4859 19.9808 18.2891C20.0565 18.0772 20.0565 17.8653 20.0565 17.6383C20.0565 17.3052 20.0414 16.9571 20.0111 16.6089C19.9687 15.878 19.9097 15.1544 19.8508 14.4331C19.7414 13.0931 19.6327 11.7607 19.6327 10.4028C19.6327 9.19181 19.6327 7.96571 19.663 6.73962C19.663 6.73962 20.1171 5.58921 20.9496 5.1351C21.8275 4.66585 22.9628 5.72544 23.4926 6.28551C23.5779 6.3781 23.6624 6.47186 23.7469 6.56566C24.1875 7.05462 24.6291 7.54468 25.188 7.87489C25.7178 8.19277 26.3535 8.34414 26.9741 8.31386C27.2315 8.31386 27.5039 8.25332 27.6856 8.08681C27.8823 7.9203 27.9429 7.58729 27.7764 7.40565C27.709 7.3248 27.6176 7.27993 27.5343 7.23902C27.524 7.23397 27.5139 7.22899 27.5039 7.224C27.0867 7.00821 26.7789 6.65568 26.4765 6.30937C26.4607 6.2913 26.445 6.27325 26.4292 6.25523C26.1795 5.96765 25.9297 5.67629 25.68 5.38492C25.4302 5.09351 25.1804 4.8021 24.9306 4.51448C24.8753 4.44857 24.8195 4.38265 24.7634 4.31653C24.4204 3.91191 24.0707 3.49944 23.8105 3.03105C23.7592 2.93983 23.71 2.84646 23.6606 2.75256C23.5787 2.59716 23.4962 2.44031 23.4018 2.28934C23.1067 1.79437 22.6919 1.44305 22.2779 1.09236C22.0335 0.885366 21.7893 0.678594 21.5702 0.442627C31.1822 1.54763 38.6447 9.63078 38.5993 19.4396C38.5993 26.9324 34.255 33.4261 27.9126 36.5595C28.0541 36.217 28.2541 35.8892 28.4551 35.5598C28.6628 35.2195 28.8715 34.8775 29.0176 34.516C29.2901 33.8197 29.4869 33.1083 29.6836 32.3817C29.7745 32.0487 29.8653 31.7194 29.9561 31.3902C30.0469 31.0609 30.1378 30.7317 30.2286 30.3987C30.2437 30.3533 30.2589 30.2928 30.2286 30.2625C30.1983 30.2322 30.168 30.2322 30.1378 30.2322C29.5323 30.1868 28.9419 30.429 28.503 30.8377C28.1851 31.1253 27.3828 32.0033 27.3828 32.4574C27.292 28.5672 27.1709 24.8132 25.2182 21.3317C25.188 21.2711 25.1425 21.1954 25.082 21.15C24.7187 20.8776 24.2949 21.3468 24.2041 21.6647C24.0679 22.1704 24.1504 22.4699 24.2791 22.9366C24.3506 23.1963 24.4364 23.5077 24.5068 23.9352C24.7036 25.1311 24.8852 26.4177 24.7641 27.3108C24.7541 27.3914 24.7462 27.4906 24.7376 27.5992C24.7075 27.9801 24.6683 28.4762 24.4917 28.6883C24.3217 28.3058 24.2486 27.8414 24.1783 27.3943C24.1484 27.2044 24.1191 27.0176 24.083 26.8415L24.083 26.8415C23.9467 26.2209 23.8105 25.6003 23.5834 25.01C23.4883 24.7537 23.3718 24.5045 23.2547 24.2539C23.1297 23.9863 23.0039 23.7171 22.9023 23.4357C22.7586 23.0525 22.6612 22.6525 22.5635 22.2512C22.4759 21.8916 22.3881 21.5309 22.2665 21.1803C22.1606 20.8776 22.0092 20.5748 21.7519 20.3781C21.4945 20.1813 21.0858 20.151 20.8588 20.3932C20.662 20.6051 20.6771 20.923 20.7225 21.2106C20.7629 21.473 20.8167 21.7353 20.8706 21.9977C20.8975 22.1289 20.9244 22.2601 20.9496 22.3913C21.0859 23.0347 21.3092 24.0755 21.5325 25.1163C21.7557 26.1569 21.9789 27.1974 22.1152 27.8406C21.7829 27.0869 21.3552 25.8778 20.9389 24.7008C20.5776 23.6793 20.2249 22.6821 19.9506 22.028C19.8597 21.8161 19.7689 21.6041 19.6024 21.4376C19.4359 21.256 19.1786 21.1652 18.9667 21.256C18.6185 21.3922 18.5882 21.8918 18.6336 22.2702C18.7272 23.0359 18.9069 23.7777 19.0866 24.5198C19.2267 25.098 19.3667 25.6763 19.4662 26.2663C19.5646 26.8643 19.663 27.4584 19.7613 28.0525C19.8597 28.6466 19.9581 29.2408 20.0565 29.8387L19.4965 30.2625C19.6103 30.1756 18.02 27.8709 17.7058 27.4156C17.6878 27.3895 17.6739 27.3694 17.6649 27.3562C17.0443 26.4177 16.4842 25.4641 16.0301 24.4348C16.0276 24.4299 16.0252 24.4245 16.0226 24.4191C16.0096 24.3909 15.9949 24.3591 15.9695 24.3591C15.941 24.3496 15.9185 24.358 15.8982 24.3655C15.8861 24.37 15.8748 24.3742 15.8636 24.3742C15.0008 24.7981 15.2127 25.782 15.5003 26.5085C15.682 26.9591 15.8802 27.4062 16.0785 27.8533C16.7062 29.2689 17.3343 30.6852 17.4378 32.2152C17.493 32.9982 17.3954 33.7731 17.2975 34.5518ZM47.2117 2.87937H59.7906C61.5465 2.87937 63.1813 3.03074 64.695 3.34862C66.2087 3.6665 67.4953 4.21143 68.5398 4.98342C69.5842 5.7554 70.3713 6.79986 70.886 8.11677C71.4007 9.43369 71.5066 11.0836 71.219 13.0666C70.9314 15.0192 70.3713 16.6692 69.5388 17.9861C68.7063 19.3182 67.677 20.3777 66.4509 21.1649C65.2248 21.952 63.817 22.5121 62.2428 22.8451C60.6685 23.1781 58.9732 23.3446 57.2022 23.3446H51.7528L49.9364 36.423H42.4739L47.2117 2.87937ZM52.6611 17.093H57.626C58.292 17.093 58.9429 17.0325 59.5938 16.9114C60.2296 16.7903 60.8199 16.5784 61.3648 16.2756C61.9098 15.9729 62.3639 15.5642 62.7574 15.0495C63.1359 14.5349 63.3781 13.8688 63.4689 13.0817C63.59 12.234 63.4991 11.5377 63.151 11.0231C62.818 10.5084 62.3487 10.0997 61.7584 9.81212C61.168 9.52451 60.502 9.34287 59.7452 9.26719C58.9883 9.1915 58.2617 9.14609 57.5654 9.14609H53.7358L52.6308 17.1082L52.6611 17.093ZM75.1544 2.87937H82.6017L80.5431 17.1536H95.0292L97.103 2.87937H104.55L99.8276 36.423H92.3651L94.121 23.6927H79.6349L77.879 36.423H70.4165L75.1544 2.87937ZM120.673 2.87937H108.094L103.356 36.423H110.818L112.635 23.3446H118.084C119.855 23.3446 121.551 23.1781 123.125 22.8451C124.699 22.5121 126.107 21.952 127.333 21.1649C128.559 20.3777 129.588 19.3182 130.421 17.9861C131.253 16.6692 131.813 15.0192 132.101 13.0666C132.389 11.0836 132.283 9.43369 131.768 8.11677C131.253 6.79986 130.466 5.7554 129.422 4.98342C128.377 4.21143 127.091 3.6665 125.577 3.34862C124.063 3.03074 122.428 2.87937 120.673 2.87937ZM118.508 17.093H113.543L113.513 17.1082L114.618 9.14609H118.447C119.159 9.14609 119.885 9.1915 120.627 9.26719C121.384 9.34287 122.05 9.52451 122.64 9.81212C123.231 10.0997 123.7 10.5084 124.033 11.0231C124.381 11.5377 124.472 12.234 124.351 13.0817C124.245 13.8688 124.003 14.5349 123.624 15.0495C123.246 15.5642 122.792 15.9729 122.247 16.2756C121.702 16.5784 121.112 16.7903 120.476 16.9114C119.825 17.0325 119.174 17.093 118.508 17.093ZM44.5034 39.3146H45.1391L46.3501 43.4167H45.5024L45.2451 42.4782H43.4438L42.9443 43.4167H42.1117L44.5034 39.3146ZM45.0786 41.8576L44.685 40.1925L43.7919 41.8576H45.0786ZM61.9443 43.1193L61.9559 43.1137L61.9408 43.144L61.9443 43.1193ZM62.2435 41.04L61.9443 43.1193C61.3877 43.3881 60.8012 43.5224 60.1849 43.5224C59.867 43.5224 59.5794 43.477 59.3221 43.3711C59.0648 43.2651 58.8528 43.1289 58.6863 42.9321C58.5198 42.7504 58.3987 42.5234 58.323 42.2509C58.2474 41.9936 58.2322 41.6908 58.2928 41.373C58.3382 41.04 58.429 40.7372 58.5804 40.4799C58.7317 40.2074 58.9134 39.9804 59.1253 39.7987C59.3524 39.6171 59.5945 39.4657 59.8822 39.3597C60.1698 39.2538 60.4725 39.2084 60.7904 39.2084C61.1082 39.2084 61.3959 39.2538 61.6683 39.3143C61.9408 39.39 62.1678 39.5263 62.3495 39.723L61.7289 40.268C61.6229 40.1317 61.4715 40.0409 61.2899 39.9804C61.1082 39.9047 60.9115 39.8744 60.6995 39.8744C60.4876 39.8744 60.2908 39.9198 60.0941 39.9955C59.9124 40.0712 59.7459 40.1771 59.5945 40.3134C59.4432 40.4496 59.3372 40.601 59.2313 40.7826C59.1404 40.9643 59.0799 41.1459 59.0496 41.3578C59.0193 41.5849 59.0193 41.7817 59.0496 41.9633C59.095 42.145 59.1707 42.3115 59.2767 42.4477C59.3826 42.5839 59.5189 42.6899 59.6854 42.7656C59.8519 42.8413 60.0335 42.8867 60.2606 42.8867C60.4422 42.8867 60.6239 42.8715 60.8055 42.8413C60.972 42.811 61.1385 42.7504 61.2748 42.6747L61.411 41.706H60.5633L60.6541 41.04H62.2435ZM74.9736 39.3146H77.7134L77.6225 39.9806H75.6093L75.4731 40.9796H77.3803L77.2744 41.6456H75.3823L75.2158 42.7658H77.3349L77.2441 43.4167H74.3832L74.9736 39.3146ZM91.1556 39.3146H90.1868L89.5964 43.4167H90.3382L90.7771 40.2682H90.7923L92.3968 43.4167H93.3353L93.9105 39.3146H93.1839L92.7449 42.3571H92.7298L91.1556 39.3146ZM109.169 40.2682L109.164 40.2617L109.745 39.8747C109.563 39.6476 109.366 39.466 109.139 39.3752C108.912 39.2692 108.67 39.2238 108.382 39.2238C108.064 39.2238 107.762 39.2692 107.474 39.3752C107.186 39.4811 106.944 39.6174 106.717 39.8141C106.505 39.9958 106.324 40.2228 106.172 40.4953C106.036 40.7678 105.93 41.0554 105.885 41.3884C105.839 41.7063 105.854 41.9939 105.93 42.2663C106.006 42.5388 106.127 42.7659 106.293 42.9475C106.46 43.1443 106.672 43.2805 106.929 43.3865C107.186 43.4924 107.474 43.5378 107.792 43.5378C108.11 43.5378 108.397 43.4773 108.685 43.3562C108.973 43.2351 109.23 43.0535 109.457 42.7961L108.912 42.3723C108.746 42.5388 108.579 42.675 108.413 42.7507C108.246 42.8264 108.079 42.8718 107.913 42.8718C107.701 42.8718 107.519 42.8264 107.353 42.7507C107.186 42.675 107.05 42.5691 106.944 42.4328C106.838 42.2966 106.778 42.1301 106.732 41.9485C106.687 41.7668 106.687 41.57 106.717 41.343C106.747 41.1311 106.808 40.9494 106.899 40.7678C107.005 40.5861 107.126 40.4348 107.262 40.2985C107.413 40.1623 107.58 40.0563 107.762 39.9806C107.958 39.905 108.155 39.8747 108.367 39.8747C108.503 39.8747 108.64 39.8898 108.776 39.9504C108.895 39.9952 109.03 40.099 109.164 40.2617L109.109 40.2985L109.169 40.2682ZM121.55 39.3146L122.776 41.6608L122.534 43.4167H123.275L123.518 41.6608L125.41 39.3146H124.532L123.26 40.9493L122.473 39.3146H121.55ZM133.266 3.5462H132.54V5.49888H132.086V3.5462H131.374V3.18292H133.266V3.5462ZM135.688 3.18292L135.075 4.77462L134.447 3.18292H133.781V5.51401H134.205V3.69757L134.901 5.51401H135.219L135.915 3.69757V5.51401H136.339V3.18292H135.688Z" fill="#343949"/>
</svg>
