<svg width="179" height="153" viewBox="0 0 179 153" fill="none" xmlns="http://www.w3.org/2000/svg">
<path opacity="0.5" d="M47.311 36.6752L47.3109 36.6752L47.3046 36.6817C35.6145 48.6604 29.6559 60.247 29.6559 71.4306C29.6559 75.2694 30.7649 78.0586 33.2647 79.4018C35.4651 80.7197 37.4631 81.4364 39.2312 81.4364H39.2804L39.3291 81.43C44.7926 80.7111 48.3299 80.3602 49.9938 80.3602C58.9677 80.3602 66.2932 83.6436 72.0301 90.2201L72.0354 90.226C77.7874 96.6794 80.6706 104.534 80.6706 113.835C80.6706 124.288 77.4985 132.999 71.1795 140.022C64.8908 146.868 56.2111 150.324 45.043 150.324C31.9009 150.324 21.2782 145.672 13.1072 136.376C5.07341 126.931 1.02063 114.348 1.02063 98.5523C1.02063 83.5172 6.19756 67.5085 16.6229 50.5136C27.058 33.5921 45.7925 18.0714 72.9278 3.98693L77.4346 12.4371C63.9189 22.0355 53.8699 30.1163 47.311 36.6752Z" stroke="#343949" stroke-width="1.5"/>
<path opacity="0.5" d="M111.347 49.727L111.346 49.7285C100.82 66.8866 95.5216 83.1654 95.5216 98.5523C95.5216 114.611 99.6471 127.57 107.97 137.353L107.978 137.362C116.452 147.006 127.497 151.824 141.044 151.824C152.548 151.824 161.661 148.249 168.288 141.034L168.293 141.028C174.887 133.701 178.172 124.62 178.172 113.835C178.172 104.196 175.172 95.9791 169.159 89.231C163.129 82.3203 155.388 78.8602 145.995 78.8602C144.22 78.8602 140.599 79.2244 135.185 79.9362C133.808 79.9233 132.096 79.3507 130.022 78.106L130.005 78.0963L129.989 78.0874C128.195 77.131 127.157 75.0451 127.157 71.4306C127.157 60.8029 132.821 49.574 144.376 37.7327C150.932 31.1769 161.079 23.0271 174.842 13.2788L175.381 12.8969L175.07 12.3139L169.904 2.62753L169.556 1.97489L168.898 2.31387C141.284 16.5523 122.066 32.3446 111.347 49.727Z" stroke="#343949" stroke-width="1.5"/>
</svg>
