<svg width="8" height="12" viewBox="0 0 8 12" fill="none" xmlns="http://www.w3.org/2000/svg">
<path d="M0.411609 11.1585C0.174142 11.3365 -2.74736e-07 11.2297 -2.78556e-07 10.9094L-3.04657e-07 8.72058C-3.06991e-07 8.52483 0.0474935 8.38248 0.221636 8.25791L3.48285 5.81996C3.54617 5.76657 3.54617 5.67759 3.48285 5.62421L0.221636 3.15066C0.0633246 3.0261 -3.74261e-07 2.88373 -3.76595e-07 2.68799L-4.04818e-07 0.321218C-4.08638e-07 0.000903095 0.174142 -0.0880749 0.411609 0.0720825L7.39314 5.39287C7.53562 5.49964 7.53562 5.74878 7.39314 5.85555L0.411609 11.1585Z" fill="#C00004"/>
</svg>
