<svg width="212" height="32" viewBox="0 0 212 32" fill="none" xmlns="http://www.w3.org/2000/svg">
<path d="M31.692 0.0964355L15.3861 19.0446L13.3847 0.0964355H0.0809326L4.67249 31.8729H17.9174L46.232 0.0964355H31.692ZM49.5873 0.0964355C49.5285 0.743735 49.7051 1.39103 49.9405 1.97949C50.2348 2.62679 50.5292 3.33293 50.8824 3.92138C51.1767 4.45099 51.471 5.03945 51.8831 5.51021C52.0597 5.74559 52.2952 6.03982 52.4129 6.33404L29.2785 31.8729H43.8184L47.2915 28.048H63.1854L63.7741 31.8729H77.0778L72.133 0.0964355H49.5873ZM61.9492 19.1623H55.1796L61.0662 12.6305L61.9492 19.1623ZM86.673 3.74485C87.0262 4.3333 87.3205 4.86291 87.6737 5.33367C87.968 5.80444 88.2035 6.09866 88.2624 6.2752L80.7275 26.1061C80.492 26.6945 80.4332 27.283 80.5509 27.8714C80.6098 28.5187 80.7864 29.166 81.0807 29.7545C81.3162 30.343 81.6693 30.8137 82.1403 31.2256C82.4935 31.6376 83.0821 31.8141 83.6119 31.8141H116.812C117.519 31.7552 118.166 31.5787 118.755 31.2256C119.52 30.8137 120.286 30.2841 120.933 29.7545C121.639 29.166 122.228 28.5776 122.817 27.8714C123.288 27.3418 123.7 26.7534 123.935 26.1061L133.648 0.0964355H120.403L112.28 21.8692C112.162 22.1634 111.985 22.3988 111.691 22.5754C111.456 22.7519 111.22 22.8696 110.926 22.9284H96.0327C95.8561 22.9284 95.6795 22.8107 95.6206 22.5754C95.5618 22.34 95.5618 22.1046 95.6206 21.8692L103.744 0.0964355H85.4957C85.4368 0.684889 85.5545 1.33219 85.79 1.8618C86.0254 2.56794 86.3198 3.15639 86.673 3.74485ZM137.533 1.92064C137.769 2.56794 138.063 3.21524 138.416 3.80369C138.769 4.39215 139.064 4.92176 139.417 5.39252C139.711 5.86328 139.947 6.15751 140.006 6.33404L130.293 31.8729H166.966L170.322 22.9284H146.893L155.487 0.0964355H137.239C137.18 0.743735 137.298 1.33219 137.533 1.92064ZM180.447 9.15862L171.793 31.8729C171.793 31.8729 184.391 32.4614 187.334 25.1057L193.692 9.21747H208.702L211.999 0.214126H168.791L165.436 9.15862H180.447Z" fill="#343949"/>
</svg>
