<svg width="19" height="13" viewBox="0 0 19 13" fill="none" xmlns="http://www.w3.org/2000/svg">
<path d="M2.25 1.75C1.96875 1.75 1.75 2 1.75 2.25V10.25C1.75 10.5313 1.96875 10.75 2.25 10.75H10.25C10.5 10.75 10.75 10.5313 10.75 10.25V2.25C10.75 2 10.5 1.75 10.25 1.75H2.25ZM0.25 2.25C0.25 1.15625 1.125 0.25 2.25 0.25H10.25C11.3437 0.25 12.25 1.15625 12.25 2.25V3.28125V9.21875V10.25C12.25 11.375 11.3437 12.25 10.25 12.25H2.25C1.125 12.25 0.25 11.375 0.25 10.25V2.25ZM16.75 9.625V2.90625L13.25 4.46875V2.84375L16.5 1.375C16.6562 1.3125 16.8125 1.25 17 1.25C17.6875 1.25 18.25 1.8125 18.25 2.5V10.0313C18.25 10.7188 17.6875 11.25 17 11.25C16.8125 11.25 16.6562 11.2188 16.5 11.1563L13.25 9.6875V8.03125L16.75 9.625Z" fill="#C00004"/>
</svg>
