<svg width="214" height="40" viewBox="0 0 214 40" fill="none" xmlns="http://www.w3.org/2000/svg">
<path fill-rule="evenodd" clip-rule="evenodd" d="M16.7687 2.17456C17.0616 2.08745 17.3111 2.03994 17.517 2.03203V1.18872H11.2456V2.03203C11.5228 2.05578 11.7959 2.08745 12.0652 2.12705C12.3344 2.16664 12.5997 2.22603 12.861 2.30521C13.1302 2.39231 13.344 2.49921 13.5024 2.6259C13.6686 2.74468 13.7518 2.89513 13.7518 3.07725C13.7518 3.25145 13.728 3.47712 13.6805 3.75427C13.6409 4.03141 13.4905 4.53026 13.2292 5.25083C12.9599 5.99516 12.4334 7.36503 11.6495 9.36045C10.8655 11.3559 10.1727 13.086 9.5709 14.5509C8.35939 11.3123 7.42502 8.81805 6.7678 7.06809C6.11058 5.31022 5.63548 4.04329 5.3425 3.26729C5.31874 3.19602 5.29103 3.101 5.25936 2.98223C5.22768 2.86345 5.21185 2.76051 5.21185 2.67341C5.21185 2.4517 5.41376 2.29729 5.8176 2.21019C6.22935 2.12309 6.73217 2.0637 7.32605 2.03203V1.18872H0.353943V2.03203C0.575657 2.04786 0.817166 2.09141 1.07847 2.16268C1.33978 2.22603 1.57733 2.325 1.79112 2.45962C2.05243 2.6259 2.26226 2.80406 2.42063 2.9941C2.579 3.17623 2.70569 3.39002 2.80071 3.63549C3.18079 4.6332 3.90136 6.5534 4.96242 9.39609C6.02348 12.2388 7.12413 15.1923 8.26437 18.2567H9.2502C10.3746 15.3665 11.4673 12.5911 12.5284 9.93057C13.5895 7.26209 14.3852 5.29834 14.9158 4.03933C15.0741 3.683 15.2325 3.37419 15.3909 3.11288C15.5572 2.85157 15.7749 2.63778 16.0441 2.47149C16.2342 2.35272 16.4757 2.25374 16.7687 2.17456ZM26.8883 18.0429H33.9079V17.1996C33.71 17.1917 33.4645 17.1521 33.1715 17.0808C32.8785 17.0017 32.641 16.9066 32.4589 16.7958C32.1896 16.6137 31.9798 16.4276 31.8294 16.2375C31.6789 16.0475 31.5443 15.7981 31.4255 15.4893L25.8075 0.951172H24.8573C24.0575 3.00994 23.1469 5.35773 22.1254 7.99454C21.104 10.6313 20.1696 13.0069 19.3223 15.121C19.1561 15.5328 18.9858 15.8575 18.8116 16.095C18.6374 16.3246 18.3919 16.5464 18.0752 16.7601C17.8772 16.8868 17.6239 16.9898 17.315 17.069C17.0062 17.1402 16.7489 17.1838 16.543 17.1996V18.0429H22.8856V17.1996C22.26 17.1679 21.6978 17.065 21.199 16.8908C20.7001 16.7166 20.4507 16.4711 20.4507 16.1544C20.4507 16.0198 20.4705 15.8456 20.5101 15.6318C20.5497 15.418 20.6209 15.1408 20.7239 14.8004C20.8347 14.4519 20.9575 14.0719 21.0921 13.6601C21.2346 13.2484 21.4167 12.7653 21.6385 12.2111H27.5416L28.9431 15.9881C28.9748 16.0673 28.9986 16.1584 29.0144 16.2613C29.0302 16.3642 29.0381 16.4513 29.0381 16.5226C29.0381 16.6968 28.8323 16.8433 28.4205 16.9621C28.0167 17.0808 27.5059 17.16 26.8883 17.1996V18.0429ZM24.5603 4.62132L27.114 11.154H22.0542L24.5603 4.62132ZM47.6858 18.0429L48.0422 13.0306H47.1989C47.0326 13.4899 46.7317 14.0917 46.2962 14.836C45.8686 15.5724 45.4925 16.1227 45.1678 16.487C45.057 16.6137 44.8828 16.7206 44.6452 16.8077C44.4156 16.8868 44.1622 16.9502 43.885 16.9977C43.6 17.0452 43.2991 17.0769 42.9823 17.0927C42.6656 17.1086 42.3608 17.1165 42.0678 17.1165C41.4185 17.1165 40.9117 17.0967 40.5475 17.0571C40.1911 17.0096 39.9219 16.9146 39.7398 16.772C39.5497 16.6137 39.427 16.3919 39.3716 16.1069C39.3241 15.8139 39.3003 15.4061 39.3003 14.8835V3.56423C39.3003 3.30292 39.3478 3.05745 39.4428 2.82782C39.5458 2.59819 39.7319 2.43586 40.0011 2.34084C40.1595 2.28541 40.4128 2.22207 40.7613 2.1508C41.1176 2.07954 41.4066 2.03994 41.6283 2.03203V1.18872H34.5137V2.03203C34.7275 2.04786 34.9967 2.10329 35.3214 2.19831C35.6539 2.28541 35.9113 2.37647 36.0934 2.47149C36.3626 2.59819 36.5408 2.76447 36.6279 2.97035C36.7229 3.17623 36.7704 3.41378 36.7704 3.683V15.7506C36.7704 16.0594 36.715 16.3128 36.6041 16.5107C36.5012 16.7087 36.3309 16.8591 36.0934 16.9621C35.9509 17.0254 35.6975 17.0769 35.3332 17.1165C34.9769 17.1561 34.7037 17.1838 34.5137 17.1996V18.0429H47.6858ZM65.2646 2.17456C65.6922 2.08745 66.0168 2.03994 66.2385 2.03203V1.18872H59.3496V2.03203C59.603 2.04786 59.9672 2.11121 60.4423 2.22207C60.9253 2.33292 61.3054 2.48733 61.5825 2.68529C61.828 2.85949 62.0141 3.2277 62.1408 3.7899C62.2675 4.34418 62.3308 5.06079 62.3308 5.93973V12.8524C62.3308 13.3275 62.2635 13.7987 62.1289 14.2659C61.9943 14.733 61.7647 15.1804 61.44 15.608C61.0995 16.0594 60.6323 16.4236 60.0385 16.7008C59.4525 16.9779 58.724 17.1165 57.853 17.1165C56.9266 17.1165 56.1981 16.9779 55.6675 16.7008C55.137 16.4236 54.7173 16.0673 54.4085 15.6318C54.1155 15.2042 53.9176 14.7449 53.8146 14.254C53.7196 13.7551 53.6721 13.28 53.6721 12.8287V3.51672C53.6721 3.25541 53.7157 3.0139 53.8028 2.79219C53.8978 2.57047 54.0799 2.41211 54.3491 2.31709C54.5075 2.26166 54.753 2.20227 55.0855 2.13892C55.426 2.07558 55.7071 2.03994 55.9288 2.03203V1.18872H48.9092V2.03203C49.1072 2.04786 49.3606 2.09141 49.6694 2.16268C49.9782 2.22603 50.2316 2.31313 50.4296 2.42398C50.7067 2.58235 50.8888 2.75655 50.9759 2.94659C51.0709 3.12872 51.1185 3.35835 51.1185 3.63549V13.6007C51.1185 14.2342 51.2531 14.8439 51.5223 15.4299C51.7915 16.0079 52.1914 16.5226 52.7219 16.9739C53.2604 17.4253 53.9255 17.7816 54.7173 18.0429C55.5092 18.3121 56.4119 18.4468 57.4254 18.4468C58.0589 18.4468 58.7201 18.3517 59.409 18.1617C60.1058 17.9796 60.767 17.6747 61.3925 17.2471C62.026 16.8037 62.5367 16.2375 62.9247 15.5486C63.3127 14.8597 63.5067 14.0481 63.5067 13.1137V5.78532C63.5067 4.96181 63.5582 4.265 63.6611 3.69488C63.764 3.12476 63.9501 2.74864 64.2193 2.56651C64.4886 2.39231 64.837 2.26166 65.2646 2.17456ZM81.4536 18.0429L81.7743 13.0781H80.9191C80.8083 13.4424 80.5509 14.0125 80.1471 14.7885C79.7512 15.5566 79.3711 16.1306 79.0069 16.5107C78.8722 16.6532 78.6426 16.7681 78.318 16.8552C78.0012 16.9344 77.6924 16.9898 77.3915 17.0215C77.0985 17.0531 76.7383 17.069 76.3107 17.069H75.2773C74.6201 17.069 74.1133 17.0492 73.757 17.0096C73.4007 16.9621 73.1196 16.8631 72.9137 16.7126C72.7078 16.5622 72.5692 16.3405 72.498 16.0475C72.4267 15.7545 72.3911 15.3546 72.3911 14.8479V9.78804H74.2915C74.8062 9.78804 75.2179 9.83555 75.5267 9.93057C75.8435 10.0256 76.1246 10.2275 76.37 10.5363C76.5205 10.7264 76.663 11.0352 76.7976 11.4628C76.9402 11.8824 77.0273 12.2823 77.0589 12.6624H77.9498V6.07038H77.0589C77.0193 6.41087 76.9362 6.77511 76.8095 7.16311C76.6907 7.54319 76.5443 7.84805 76.37 8.07768C76.1562 8.34691 75.9068 8.5409 75.6218 8.65968C75.3446 8.77054 74.9012 8.82596 74.2915 8.82596H72.3911V2.12705H75.0398C75.4753 2.12705 75.8633 2.13496 76.2038 2.1508C76.5443 2.16664 76.8372 2.19039 77.0827 2.22207C77.5578 2.28541 78.0567 2.65758 78.5793 3.33855C79.1098 4.01161 79.4542 4.64904 79.6126 5.25083H80.5034V1.18872H67.4619V2.03203C67.6757 2.04786 67.9608 2.09537 68.3171 2.17456C68.6813 2.25374 68.9704 2.3448 69.1842 2.44774C69.4613 2.57443 69.6434 2.74072 69.7305 2.94659C69.8176 3.14455 69.8612 3.37419 69.8612 3.63549V15.7506C69.8612 16.0435 69.8097 16.285 69.7068 16.4751C69.6117 16.6651 69.4375 16.8195 69.1842 16.9383C69.0654 16.9937 68.808 17.0492 68.4121 17.1046C68.0162 17.1521 67.6995 17.1838 67.4619 17.1996V18.0429H81.4536ZM96.3718 5.76157H97.1913V1.18872H82.5107V5.76157H83.3422C83.4134 5.50026 83.5401 5.17165 83.7222 4.77573C83.9044 4.3719 84.1142 3.99182 84.3517 3.63549C84.5893 3.27917 84.8466 2.96243 85.1238 2.68529C85.4088 2.40023 85.682 2.24186 85.9433 2.21019C86.2759 2.1706 86.6243 2.14684 86.9885 2.13892C87.3528 2.12309 87.6577 2.11517 87.9031 2.11517H88.592V15.703C88.592 16.0277 88.5287 16.289 88.402 16.487C88.2832 16.677 88.0932 16.8235 87.8319 16.9264C87.6577 16.9977 87.3409 17.0571 86.8817 17.1046C86.4303 17.1521 86.0938 17.1838 85.8721 17.1996V18.0429H93.83V17.1996C93.5766 17.1917 93.2203 17.1402 92.761 17.0452C92.3097 16.9502 92.0127 16.875 91.8702 16.8195C91.5931 16.7008 91.3991 16.5345 91.2882 16.3207C91.1774 16.099 91.1219 15.8575 91.1219 15.5961V2.11517H91.8108C92.1276 2.11517 92.472 2.12309 92.8442 2.13892C93.2163 2.15476 93.5251 2.17852 93.7706 2.21019C94.0319 2.24978 94.3011 2.40815 94.5783 2.68529C94.8633 2.95451 95.1246 3.27125 95.3622 3.63549C95.5918 3.9839 95.7977 4.35606 95.9798 4.75198C96.1699 5.13998 96.3005 5.47651 96.3718 5.76157ZM107.252 18.0429H114.271V17.1996C114.073 17.1917 113.828 17.1521 113.535 17.0808C113.242 17.0017 113.004 16.9066 112.822 16.7958C112.553 16.6137 112.343 16.4276 112.193 16.2375C112.042 16.0475 111.908 15.7981 111.789 15.4893L106.171 0.951172H105.221C104.421 3.00994 103.51 5.35773 102.489 7.99454C101.467 10.6313 100.533 13.0069 99.6856 15.121C99.5193 15.5328 99.3491 15.8575 99.1749 16.095C99.0007 16.3246 98.7552 16.5464 98.4385 16.7601C98.2405 16.8868 97.9871 16.9898 97.6783 17.069C97.3695 17.1402 97.1122 17.1838 96.9063 17.1996V18.0429H103.249V17.1996C102.623 17.1679 102.061 17.065 101.562 16.8908C101.063 16.7166 100.814 16.4711 100.814 16.1544C100.814 16.0198 100.834 15.8456 100.873 15.6318C100.913 15.418 100.984 15.1408 101.087 14.8004C101.198 14.4519 101.321 14.0719 101.455 13.6601C101.598 13.2484 101.78 12.7653 102.002 12.2111H107.905L109.306 15.9881C109.338 16.0673 109.362 16.1584 109.378 16.2613C109.394 16.3642 109.401 16.4513 109.401 16.5226C109.401 16.6968 109.196 16.8433 108.784 16.9621C108.38 17.0808 107.869 17.16 107.252 17.1996V18.0429ZM104.924 4.62132L107.477 11.154H102.417L104.924 4.62132ZM114.651 18.0429H122.241V17.1996C121.98 17.1917 121.659 17.1521 121.279 17.0808C120.907 17.0017 120.638 16.9304 120.471 16.867C120.194 16.7483 119.996 16.5899 119.877 16.3919C119.767 16.1861 119.711 15.9525 119.711 15.6912V3.49296C119.711 3.23165 119.763 2.9941 119.866 2.78031C119.968 2.56651 120.17 2.41211 120.471 2.31709C120.725 2.2379 121.022 2.17456 121.362 2.12705C121.703 2.07162 121.996 2.03994 122.241 2.03203V1.18872H114.651V2.03203C114.881 2.04786 115.174 2.09933 115.53 2.18643C115.894 2.26562 116.195 2.35272 116.433 2.44774C116.758 2.57443 116.963 2.7328 117.051 2.92284C117.138 3.10496 117.181 3.33459 117.181 3.61174V15.8218C117.181 16.1386 117.122 16.388 117.003 16.5701C116.884 16.7443 116.694 16.8829 116.433 16.9858C116.267 17.0492 115.982 17.0967 115.578 17.1283C115.174 17.16 114.865 17.1838 114.651 17.1996V18.0429ZM140.627 2.22207C141.087 2.10329 141.427 2.03994 141.649 2.03203V1.18872H134.796V2.03203C135.057 2.04786 135.437 2.12705 135.936 2.26958C136.443 2.41211 136.807 2.5586 137.029 2.70904C137.266 2.88325 137.448 3.23561 137.575 3.76614C137.702 4.28875 137.765 5.041 137.765 6.02287V14.0402L128.287 1.18872H123.476V2.03203C123.777 2.04786 124.169 2.1508 124.652 2.34084C125.143 2.52296 125.531 2.74468 125.816 3.00598C126.03 3.20394 126.2 3.48504 126.327 3.84929C126.454 4.21353 126.517 4.57777 126.517 4.94202V13.2444C126.517 14.3451 126.465 15.125 126.363 15.5843C126.26 16.0356 126.07 16.3721 125.792 16.5939C125.666 16.7047 125.349 16.8314 124.842 16.9739C124.335 17.1086 123.975 17.1838 123.761 17.1996V18.0429H130.674V17.1996C130.492 17.1917 130.116 17.1125 129.546 16.9621C128.976 16.8116 128.599 16.6493 128.417 16.4751C128.164 16.2534 127.974 15.8812 127.847 15.3586C127.728 14.836 127.669 14.0877 127.669 13.1137V4.41941L137.884 18.2092H138.917V5.86846C138.917 5.00536 138.965 4.29271 139.06 3.73051C139.163 3.16831 139.357 2.78823 139.642 2.59027C139.84 2.46358 140.168 2.34084 140.627 2.22207ZM155.866 18.0429H163.313V17.1996C163.1 17.1917 162.811 17.1561 162.446 17.0927C162.082 17.0215 161.829 16.9462 161.686 16.867C161.417 16.7245 161.235 16.5582 161.14 16.3682C161.045 16.1781 160.997 15.9446 160.997 15.6674V3.51672C160.997 3.25541 161.045 3.0139 161.14 2.79219C161.235 2.57047 161.417 2.41211 161.686 2.31709C161.845 2.26166 162.094 2.20227 162.435 2.13892C162.783 2.07558 163.068 2.03994 163.29 2.03203V1.18872H157.79C157.783 1.33125 157.723 1.61631 157.612 2.0439C157.509 2.46358 157.383 2.86741 157.232 3.25541L153.111 13.8264L148.288 1.18872H142.54V2.03203C142.888 2.04786 143.24 2.10725 143.597 2.21019C143.953 2.31313 144.254 2.47149 144.499 2.68529C144.721 2.88325 144.891 3.14059 145.01 3.45733C145.129 3.77406 145.188 4.18186 145.188 4.68071V13.3038C145.188 14.3807 145.137 15.1488 145.034 15.608C144.931 16.0673 144.741 16.4078 144.464 16.6295C144.25 16.8037 143.945 16.9344 143.549 17.0215C143.161 17.1086 142.789 17.1679 142.433 17.1996V18.0429H149.239V17.1996C149.072 17.1917 148.716 17.1125 148.17 16.9621C147.623 16.8116 147.263 16.6532 147.089 16.487C146.835 16.2652 146.645 15.901 146.519 15.3942C146.4 14.8875 146.34 14.1471 146.34 13.1731V3.11288H146.495L151.97 17.7697H152.564L158.313 3.40982H158.491V15.6674C158.491 15.9604 158.432 16.2059 158.313 16.4038C158.202 16.5939 158.024 16.7641 157.779 16.9146C157.62 17.0017 157.327 17.069 156.9 17.1165C156.48 17.164 156.135 17.1917 155.866 17.1996V18.0429ZM179.443 18.0429L179.764 13.0781H178.909C178.798 13.4424 178.54 14.0125 178.137 14.7885C177.741 15.5566 177.361 16.1306 176.996 16.5107C176.862 16.6532 176.632 16.7681 176.307 16.8552C175.991 16.9344 175.682 16.9898 175.381 17.0215C175.088 17.0531 174.728 17.069 174.3 17.069H173.267C172.61 17.069 172.103 17.0492 171.747 17.0096C171.39 16.9621 171.109 16.8631 170.903 16.7126C170.697 16.5622 170.559 16.3405 170.487 16.0475C170.416 15.7545 170.381 15.3546 170.381 14.8479V9.78804H172.281C172.796 9.78804 173.207 9.83555 173.516 9.93057C173.833 10.0256 174.114 10.2275 174.36 10.5363C174.51 10.7264 174.653 11.0352 174.787 11.4628C174.93 11.8824 175.017 12.2823 175.048 12.6624H175.939V6.07038H175.048C175.009 6.41087 174.926 6.77511 174.799 7.16311C174.68 7.54319 174.534 7.84805 174.36 8.07768C174.146 8.34691 173.896 8.5409 173.611 8.65968C173.334 8.77054 172.891 8.82596 172.281 8.82596H170.381V2.12705H173.029C173.465 2.12705 173.853 2.13496 174.193 2.1508C174.534 2.16664 174.827 2.19039 175.072 2.22207C175.547 2.28541 176.046 2.65758 176.569 3.33855C177.099 4.01161 177.444 4.64904 177.602 5.25083H178.493V1.18872H165.451V2.03203C165.665 2.04786 165.95 2.09537 166.307 2.17456C166.671 2.25374 166.96 2.3448 167.174 2.44774C167.451 2.57443 167.633 2.74072 167.72 2.94659C167.807 3.14455 167.851 3.37419 167.851 3.63549V15.7506C167.851 16.0435 167.799 16.285 167.696 16.4751C167.601 16.6651 167.427 16.8195 167.174 16.9383C167.055 16.9937 166.798 17.0492 166.402 17.1046C166.006 17.1521 165.689 17.1838 165.451 17.1996V18.0429H179.443ZM197.758 2.22207C198.218 2.10329 198.558 2.03994 198.78 2.03203V1.18872H191.926V2.03203C192.188 2.04786 192.568 2.12705 193.067 2.26958C193.573 2.41211 193.938 2.5586 194.159 2.70904C194.397 2.88325 194.579 3.23561 194.706 3.76614C194.832 4.28875 194.896 5.041 194.896 6.02287V14.0402L185.418 1.18872H180.607V2.03203C180.908 2.04786 181.3 2.1508 181.783 2.34084C182.274 2.52296 182.662 2.74468 182.947 3.00598C183.161 3.20394 183.331 3.48504 183.458 3.84929C183.584 4.21353 183.648 4.57777 183.648 4.94202V13.2444C183.648 14.3451 183.596 15.125 183.493 15.5843C183.39 16.0356 183.2 16.3721 182.923 16.5939C182.797 16.7047 182.48 16.8314 181.973 16.9739C181.466 17.1086 181.106 17.1838 180.892 17.1996V18.0429H187.805V17.1996C187.623 17.1917 187.247 17.1125 186.677 16.9621C186.106 16.8116 185.73 16.6493 185.548 16.4751C185.295 16.2534 185.105 15.8812 184.978 15.3586C184.859 14.836 184.8 14.0877 184.8 13.1137V4.41941L195.015 18.2092H196.048V5.86846C196.048 5.00536 196.095 4.29271 196.19 3.73051C196.293 3.16831 196.487 2.78823 196.772 2.59027C196.97 2.46358 197.299 2.34084 197.758 2.22207ZM213.033 5.76157H213.852V1.18872H199.172V5.76157H200.003C200.074 5.50026 200.201 5.17165 200.383 4.77573C200.565 4.3719 200.775 3.99182 201.013 3.63549C201.25 3.27917 201.508 2.96243 201.785 2.68529C202.07 2.40023 202.343 2.24186 202.604 2.21019C202.937 2.1706 203.285 2.14684 203.65 2.13892C204.014 2.12309 204.319 2.11517 204.564 2.11517H205.253V15.703C205.253 16.0277 205.19 16.289 205.063 16.487C204.944 16.677 204.754 16.8235 204.493 16.9264C204.319 16.9977 204.002 17.0571 203.543 17.1046C203.091 17.1521 202.755 17.1838 202.533 17.1996V18.0429H210.491V17.1996C210.238 17.1917 209.881 17.1402 209.422 17.0452C208.971 16.9502 208.674 16.875 208.531 16.8195C208.254 16.7008 208.06 16.5345 207.949 16.3207C207.838 16.099 207.783 15.8575 207.783 15.5961V2.11517H208.472C208.789 2.11517 209.133 2.12309 209.505 2.13892C209.877 2.15476 210.186 2.17852 210.432 2.21019C210.693 2.24978 210.962 2.40815 211.239 2.68529C211.524 2.95451 211.786 3.27125 212.023 3.63549C212.253 3.9839 212.459 4.35606 212.641 4.75198C212.831 5.13998 212.961 5.47651 213.033 5.76157ZM1.53516 38.7149H7.43881V38.0589C7.23556 38.0528 6.98611 38.022 6.69046 37.9666C6.40098 37.905 6.19156 37.8495 6.06222 37.8003C5.84664 37.7079 5.69266 37.5847 5.60027 37.4307C5.51404 37.2706 5.47093 37.0889 5.47093 36.8856V27.3973C5.47093 27.194 5.51096 27.0092 5.59103 26.8429C5.6711 26.6766 5.82816 26.5565 6.06222 26.4826C6.25931 26.421 6.49028 26.3718 6.75513 26.3348C7.01998 26.2917 7.24787 26.267 7.43881 26.2609V25.6049H1.53516V26.2609C1.71378 26.2732 1.94167 26.3132 2.21884 26.381C2.50216 26.4426 2.73622 26.5103 2.92099 26.5842C3.17352 26.6828 3.33366 26.806 3.40142 26.9538C3.46917 27.0955 3.50304 27.2741 3.50304 27.4897V36.9872C3.50304 37.2336 3.45685 37.4276 3.36446 37.5693C3.27207 37.7048 3.12425 37.8126 2.92099 37.8926C2.79165 37.9419 2.56992 37.9789 2.25579 38.0035C1.94167 38.0282 1.70146 38.0466 1.53516 38.0589V38.7149ZM22.5352 25.6049H22.3504H17.2043V26.2609C17.4076 26.2732 17.7032 26.3348 18.0913 26.4457C18.4854 26.5565 18.7688 26.6705 18.9412 26.7875C19.126 26.923 19.2677 27.1971 19.3662 27.6098C19.4648 28.0163 19.514 28.6014 19.514 29.3652V35.6014L12.1414 25.6049H8.39966V26.2609C8.63371 26.2732 8.93859 26.3533 9.31431 26.5011C9.69618 26.6428 9.99798 26.8152 10.2197 27.0185C10.386 27.1725 10.5184 27.3911 10.617 27.6744C10.7155 27.9578 10.7648 28.2411 10.7648 28.5244V34.9824C10.7648 35.8385 10.7248 36.4452 10.6447 36.8025C10.5646 37.1535 10.4168 37.4153 10.2012 37.5878C10.1027 37.674 9.85632 37.7725 9.46213 37.8834C9.06793 37.9881 8.78769 38.0466 8.62139 38.0589V38.7149H13.9984V38.0589C13.8568 38.0528 13.5642 37.9912 13.1207 37.8742C12.6773 37.7571 12.3847 37.6309 12.243 37.4954C12.0459 37.3229 11.8981 37.0334 11.7996 36.6269C11.7072 36.2204 11.661 35.6384 11.661 34.8808V28.1179L19.6064 38.8443H20.4102V29.245C20.4102 28.5737 20.4472 28.0194 20.5211 27.582C20.6011 27.1447 20.7521 26.8491 20.9738 26.6951C21.1278 26.5966 21.3834 26.5011 21.7406 26.4087C22.0338 26.3329 22.2647 26.2861 22.4335 26.2684C22.5827 26.2845 22.7429 26.3159 22.9139 26.3625C23.1172 26.4118 23.302 26.4888 23.4683 26.5935C23.6715 26.7228 23.8348 26.8614 23.9579 27.0092C24.0811 27.1509 24.1797 27.3172 24.2536 27.5081C24.5492 28.2842 25.1097 29.7778 25.9351 31.989C26.7604 34.2002 27.6165 36.4976 28.5035 38.8812H29.2703C30.1449 36.6331 30.9949 34.4743 31.8202 32.4047C32.6456 30.3291 33.2646 28.8016 33.6773 27.8223C33.8004 27.5451 33.9236 27.3049 34.0468 27.1016C34.1762 26.8984 34.3455 26.7321 34.555 26.6027C34.7028 26.5103 34.8906 26.4333 35.1185 26.3718C35.3464 26.304 35.5404 26.267 35.7006 26.2609V25.6049H30.8224V26.2609C31.038 26.2794 31.2505 26.304 31.4599 26.3348C31.6693 26.3656 31.8757 26.4118 32.0789 26.4734C32.2883 26.5411 32.4546 26.6243 32.5778 26.7228C32.7072 26.8152 32.7718 26.9322 32.7718 27.0739C32.7718 27.2094 32.7534 27.385 32.7164 27.6005C32.6856 27.8161 32.5686 28.2041 32.3653 28.7646C32.1559 29.3436 31.7463 30.4091 31.1366 31.9613C30.5268 33.5134 29.9879 34.8592 29.5198 35.9987C28.5774 33.4795 27.8506 31.5394 27.3394 30.1782C26.8282 28.8108 26.4586 27.8253 26.2307 27.2217C26.2122 27.1663 26.1907 27.0924 26.166 27C26.1414 26.9076 26.1291 26.8275 26.1291 26.7598C26.1291 26.5873 26.2861 26.4672 26.6003 26.3995C26.9205 26.3317 27.3117 26.2855 27.7736 26.2609V25.6049H22.5352ZM46.9997 38.7149L47.2492 34.8531H46.584C46.4978 35.1364 46.2976 35.5798 45.9835 36.1835C45.6755 36.7809 45.3799 37.2274 45.0965 37.5231C44.9918 37.634 44.8132 37.7233 44.5607 37.791C44.3143 37.8526 44.0741 37.8957 43.84 37.9204C43.6121 37.945 43.3319 37.9573 42.9993 37.9573H42.1955C41.6843 37.9573 41.2901 37.9419 41.0129 37.9111C40.7358 37.8742 40.5171 37.7972 40.357 37.6802C40.1968 37.5631 40.089 37.3907 40.0336 37.1628C39.9782 36.9349 39.9505 36.6238 39.9505 36.2296V32.2939H41.4287C41.829 32.2939 42.1493 32.3308 42.3895 32.4047C42.6359 32.4787 42.8546 32.6357 43.0455 32.8759C43.1625 33.0238 43.2734 33.264 43.3781 33.5966C43.489 33.923 43.5567 34.234 43.5813 34.5297H44.2743V29.4021H43.5813C43.5505 29.667 43.4859 29.9503 43.3873 30.2521C43.2949 30.5477 43.181 30.7849 43.0455 30.9635C42.8792 31.1729 42.6852 31.3238 42.4634 31.4162C42.2479 31.5024 41.9029 31.5455 41.4287 31.5455H39.9505V26.3348H42.0107C42.3495 26.3348 42.6513 26.341 42.9161 26.3533C43.181 26.3656 43.4089 26.3841 43.5998 26.4087C43.9694 26.458 44.3574 26.7475 44.7639 27.2772C45.1766 27.8007 45.4445 28.2965 45.5677 28.7646H46.2606V25.6049H36.1163V26.2609C36.2826 26.2732 36.5044 26.3102 36.7815 26.3718C37.0648 26.4333 37.2897 26.5042 37.456 26.5842C37.6715 26.6828 37.8132 26.8121 37.881 26.9723C37.9487 27.1263 37.9826 27.3049 37.9826 27.5081V36.9318C37.9826 37.1597 37.9425 37.3476 37.8625 37.4954C37.7886 37.6432 37.6531 37.7633 37.456 37.8557C37.3636 37.8988 37.1634 37.9419 36.8554 37.985C36.5475 38.022 36.3011 38.0466 36.1163 38.0589V38.7149H46.9997ZM57.3565 33.7167C57.2272 33.3471 57.0239 33.0084 56.7468 32.7004C56.4942 32.4294 56.1955 32.1923 55.8506 31.989C55.5118 31.7857 55.1577 31.604 54.7881 31.4439C54.3816 31.2653 53.9597 31.099 53.5224 30.945C53.0912 30.7849 52.6509 30.597 52.2012 30.3814C51.6962 30.1412 51.3112 29.8363 51.0464 29.4668C50.7815 29.0911 50.6491 28.6199 50.6491 28.0532C50.6491 27.5112 50.8554 27.0524 51.2681 26.6766C51.6808 26.3009 52.1797 26.1131 52.7648 26.1131C53.3191 26.1131 53.7872 26.2208 54.1691 26.4364C54.551 26.6458 54.8743 26.9292 55.1392 27.2864C55.4102 27.656 55.6289 28.0686 55.7952 28.5244C55.9676 28.9802 56.1216 29.4575 56.2571 29.9564H57.0055L56.9315 25.6049H56.1924L55.8136 26.2332C55.4194 25.9868 54.9821 25.7712 54.5017 25.5864C54.0275 25.4017 53.4885 25.3093 52.8849 25.3093C52.3552 25.3093 51.8471 25.4017 51.3605 25.5864C50.8739 25.7651 50.452 26.0145 50.0948 26.3348C49.719 26.6736 49.4296 27.0585 49.2263 27.4897C49.0231 27.9208 48.9214 28.3858 48.9214 28.8847C48.9214 29.7532 49.1247 30.4584 49.5312 31.0004C49.9439 31.5363 50.5198 31.9705 51.2589 32.3031C51.6346 32.4756 52.0811 32.6604 52.5985 32.8575C53.1159 33.0484 53.5747 33.2239 53.9751 33.3841C54.5602 33.6181 55.0006 33.963 55.2963 34.4188C55.5919 34.8685 55.7397 35.355 55.7397 35.8786C55.7397 36.2358 55.6904 36.553 55.5919 36.8302C55.4995 37.1012 55.3548 37.3383 55.1577 37.5416C54.9606 37.7448 54.7019 37.9019 54.3816 38.0128C54.0675 38.1236 53.6979 38.1791 53.2729 38.1791C52.7063 38.1791 52.2074 38.0713 51.7762 37.8557C51.3513 37.6401 50.9786 37.3506 50.6583 36.9872C50.3196 36.5992 50.0455 36.1835 49.8361 35.74C49.6328 35.2904 49.4542 34.7884 49.3002 34.234H48.5519L48.6812 38.7241H49.4203L49.8176 38.0497C50.2426 38.3084 50.7476 38.5301 51.3328 38.7149C51.9179 38.8935 52.503 38.9828 53.0882 38.9828C54.357 38.9828 55.4194 38.6071 56.2756 37.8557C57.1317 37.1043 57.5598 36.1496 57.5598 34.9916C57.5598 34.5051 57.492 34.0801 57.3565 33.7167ZM69.2285 29.1619H69.866V25.6049H58.4467V29.1619H59.0934C59.1489 28.9586 59.2474 28.703 59.3891 28.3951C59.5307 28.0809 59.694 27.7853 59.8787 27.5081C60.0635 27.231 60.2637 26.9846 60.4793 26.769C60.701 26.5473 60.9135 26.4241 61.1168 26.3995C61.3754 26.3687 61.6465 26.3502 61.9298 26.344C62.2131 26.3317 62.4502 26.3256 62.6412 26.3256H63.177V36.8948C63.177 37.1474 63.1278 37.3506 63.0292 37.5046C62.9368 37.6524 62.789 37.7664 62.5857 37.8465C62.4502 37.9019 62.2039 37.9481 61.8466 37.985C61.4956 38.022 61.2338 38.0466 61.0613 38.0589V38.7149H67.2514V38.0589C67.0543 38.0528 66.7771 38.0128 66.4199 37.9388C66.0688 37.8649 65.8378 37.8064 65.727 37.7633C65.5114 37.6709 65.3605 37.5416 65.2743 37.3753C65.188 37.2028 65.1449 37.015 65.1449 36.8117V26.3256H65.6808C65.9271 26.3256 66.1951 26.3317 66.4846 26.344C66.774 26.3564 67.0142 26.3748 67.2052 26.3995C67.4084 26.4303 67.6179 26.5534 67.8334 26.769C68.0552 26.9784 68.2584 27.2248 68.4432 27.5081C68.6218 27.7791 68.782 28.0686 68.9236 28.3766C69.0714 28.6784 69.1731 28.9402 69.2285 29.1619ZM80.9157 38.7149H86.7085V38.0589C86.5422 38.0528 86.3174 38.0251 86.034 37.9758C85.7507 37.9204 85.5536 37.8619 85.4428 37.8003C85.2333 37.6894 85.0917 37.56 85.0178 37.4122C84.9439 37.2644 84.9069 37.0827 84.9069 36.8671V27.4157C84.9069 27.2125 84.9439 27.0246 85.0178 26.8522C85.0917 26.6797 85.2333 26.5565 85.4428 26.4826C85.5659 26.4395 85.76 26.3933 86.0248 26.344C86.2958 26.2948 86.5175 26.267 86.69 26.2609V25.6049H82.4124C82.4062 25.7158 82.36 25.9375 82.2738 26.2701C82.1937 26.5966 82.0952 26.9107 81.9782 27.2125L78.7723 35.4351L75.0213 25.6049H70.5497V26.2609C70.8207 26.2732 71.0948 26.3194 71.3719 26.3995C71.6491 26.4795 71.8831 26.6027 72.0741 26.769C72.2465 26.923 72.379 27.1232 72.4714 27.3696C72.5637 27.6159 72.6099 27.9331 72.6099 28.3212V35.0286C72.6099 35.8663 72.5699 36.4637 72.4898 36.8209C72.4098 37.1782 72.2619 37.443 72.0464 37.6155C71.8801 37.751 71.6429 37.8526 71.335 37.9204C71.0332 37.9881 70.7437 38.0343 70.4665 38.0589V38.7149H75.7604V38.0589C75.6311 38.0528 75.3539 37.9912 74.9289 37.8742C74.5039 37.7571 74.2237 37.634 74.0882 37.5046C73.8911 37.3322 73.7432 37.0488 73.6447 36.6546C73.5523 36.2604 73.5061 35.6846 73.5061 34.927V27.1016H73.6262L77.8853 38.5024H78.3473L82.8189 27.3326H82.9575V36.8671C82.9575 37.095 82.9113 37.286 82.8189 37.4399C82.7327 37.5878 82.5941 37.7202 82.4032 37.8372C82.28 37.905 82.0521 37.9573 81.7195 37.9943C81.393 38.0312 81.1251 38.0528 80.9157 38.0589V38.7149ZM99.2549 38.7149L99.5043 34.8531H98.8391C98.7529 35.1364 98.5527 35.5798 98.2386 36.1835C97.9307 36.7809 97.635 37.2274 97.3517 37.5231C97.247 37.634 97.0684 37.7233 96.8158 37.791C96.5695 37.8526 96.3292 37.8957 96.0952 37.9204C95.8673 37.945 95.5871 37.9573 95.2545 37.9573H94.4507C93.9395 37.9573 93.5453 37.9419 93.2681 37.9111C92.9909 37.8742 92.7723 37.7972 92.6121 37.6802C92.452 37.5631 92.3442 37.3907 92.2888 37.1628C92.2333 36.9349 92.2056 36.6238 92.2056 36.2296V32.2939H93.6838C94.0842 32.2939 94.4045 32.3308 94.6447 32.4047C94.8911 32.4787 95.1097 32.6357 95.3007 32.8759C95.4177 33.0238 95.5285 33.264 95.6333 33.5966C95.7441 33.923 95.8119 34.234 95.8365 34.5297H96.5294V29.4021H95.8365C95.8057 29.667 95.741 29.9503 95.6425 30.2521C95.5501 30.5477 95.4362 30.7849 95.3007 30.9635C95.1344 31.1729 94.9403 31.3238 94.7186 31.4162C94.503 31.5024 94.1581 31.5455 93.6838 31.5455H92.2056V26.3348H94.2659C94.6047 26.3348 94.9065 26.341 95.1713 26.3533C95.4362 26.3656 95.664 26.3841 95.855 26.4087C96.2245 26.458 96.6126 26.7475 97.0191 27.2772C97.4318 27.8007 97.6997 28.2965 97.8229 28.7646H98.5158V25.6049H88.3715V26.2609C88.5378 26.2732 88.7595 26.3102 89.0367 26.3718C89.32 26.4333 89.5448 26.5042 89.7111 26.5842C89.9267 26.6828 90.0684 26.8121 90.1361 26.9723C90.2039 27.1263 90.2377 27.3049 90.2377 27.5081V36.9318C90.2377 37.1597 90.1977 37.3476 90.1176 37.4954C90.0437 37.6432 89.9082 37.7633 89.7111 37.8557C89.6187 37.8988 89.4186 37.9419 89.1106 37.985C88.8026 38.022 88.5563 38.0466 88.3715 38.0589V38.7149H99.2549ZM113.501 26.4087C113.858 26.3163 114.123 26.267 114.296 26.2609V25.6049H108.965V26.2609C109.168 26.2732 109.464 26.3348 109.852 26.4457C110.246 26.5565 110.529 26.6705 110.702 26.7875C110.887 26.923 111.028 27.1971 111.127 27.6098C111.225 28.0163 111.275 28.6014 111.275 29.3652V35.6014L103.902 25.6049H100.16V26.2609C100.394 26.2732 100.699 26.3533 101.075 26.5011C101.457 26.6428 101.759 26.8152 101.98 27.0185C102.147 27.1725 102.279 27.3911 102.378 27.6744C102.476 27.9578 102.525 28.2411 102.525 28.5244V34.9824C102.525 35.8385 102.485 36.4452 102.405 36.8025C102.325 37.1535 102.177 37.4153 101.962 37.5878C101.863 37.674 101.617 37.7725 101.223 37.8834C100.829 37.9881 100.548 38.0466 100.382 38.0589V38.7149H105.759V38.0589C105.617 38.0528 105.325 37.9912 104.881 37.8742C104.438 37.7571 104.145 37.6309 104.004 37.4954C103.807 37.3229 103.659 37.0334 103.56 36.6269C103.468 36.2204 103.422 35.6384 103.422 34.8808V28.1179L111.367 38.8443H112.171V29.245C112.171 28.5737 112.208 28.0194 112.282 27.582C112.362 27.1447 112.513 26.8491 112.734 26.6951C112.888 26.5966 113.144 26.5011 113.501 26.4087ZM125.382 29.1619H126.02V25.6049H114.601V29.1619H115.247C115.303 28.9586 115.401 28.703 115.543 28.3951C115.685 28.0809 115.848 27.7853 116.033 27.5081C116.217 27.231 116.418 26.9846 116.633 26.769C116.855 26.5473 117.067 26.4241 117.271 26.3995C117.529 26.3687 117.8 26.3502 118.084 26.344C118.367 26.3317 118.604 26.3256 118.795 26.3256H119.331V36.8948C119.331 37.1474 119.282 37.3506 119.183 37.5046C119.091 37.6524 118.943 37.7664 118.74 37.8465C118.604 37.9019 118.358 37.9481 118.001 37.985C117.65 38.022 117.388 38.0466 117.215 38.0589V38.7149H123.405V38.0589C123.208 38.0528 122.931 38.0128 122.574 37.9388C122.223 37.8649 121.992 37.8064 121.881 37.7633C121.665 37.6709 121.514 37.5416 121.428 37.3753C121.342 37.2028 121.299 37.015 121.299 36.8117V26.3256H121.835C122.081 26.3256 122.349 26.3317 122.639 26.344C122.928 26.3564 123.168 26.3748 123.359 26.3995C123.562 26.4303 123.772 26.5534 123.987 26.769C124.209 26.9784 124.412 27.2248 124.597 27.5081C124.776 27.7791 124.936 28.0686 125.078 28.3766C125.225 28.6784 125.327 28.9402 125.382 29.1619ZM135.85 33.7167C135.721 33.3471 135.518 33.0084 135.24 32.7004C134.988 32.4294 134.689 32.1923 134.344 31.989C134.005 31.7857 133.651 31.604 133.282 31.4439C132.875 31.2653 132.453 31.099 132.016 30.945C131.585 30.7849 131.144 30.597 130.695 30.3814C130.19 30.1412 129.805 29.8363 129.54 29.4668C129.275 29.0911 129.143 28.6199 129.143 28.0532C129.143 27.5112 129.349 27.0524 129.762 26.6766C130.174 26.3009 130.673 26.1131 131.258 26.1131C131.813 26.1131 132.281 26.2208 132.663 26.4364C133.045 26.6458 133.368 26.9292 133.633 27.2864C133.904 27.656 134.122 28.0686 134.289 28.5244C134.461 28.9802 134.615 29.4575 134.751 29.9564H135.499L135.425 25.6049H134.686L134.307 26.2332C133.913 25.9868 133.476 25.7712 132.995 25.5864C132.521 25.4017 131.982 25.3093 131.379 25.3093C130.849 25.3093 130.341 25.4017 129.854 25.5864C129.368 25.7651 128.946 26.0145 128.588 26.3348C128.213 26.6736 127.923 27.0585 127.72 27.4897C127.517 27.9208 127.415 28.3858 127.415 28.8847C127.415 29.7532 127.618 30.4584 128.025 31.0004C128.437 31.5363 129.013 31.9705 129.752 32.3031C130.128 32.4756 130.575 32.6604 131.092 32.8575C131.609 33.0484 132.068 33.2239 132.469 33.3841C133.054 33.6181 133.494 33.963 133.79 34.4188C134.086 34.8685 134.233 35.355 134.233 35.8786C134.233 36.2358 134.184 36.553 134.086 36.8302C133.993 37.1012 133.848 37.3383 133.651 37.5416C133.454 37.7448 133.195 37.9019 132.875 38.0128C132.561 38.1236 132.192 38.1791 131.767 38.1791C131.2 38.1791 130.701 38.0713 130.27 37.8557C129.845 37.6401 129.472 37.3506 129.152 36.9872C128.813 36.5992 128.539 36.1835 128.33 35.74C128.126 35.2904 127.948 34.7884 127.794 34.234H127.045L127.175 38.7241H127.914L128.311 38.0497C128.736 38.3084 129.241 38.5301 129.826 38.7149C130.411 38.8935 130.997 38.9828 131.582 38.9828C132.851 38.9828 133.913 38.6071 134.769 37.8557C135.625 37.1043 136.053 36.1496 136.053 34.9916C136.053 34.5051 135.986 34.0801 135.85 33.7167ZM154.356 33.5688C154.608 33.5257 154.808 33.4949 154.956 33.4765V32.802H149.21V33.4765C149.407 33.4888 149.678 33.5196 150.023 33.5688C150.374 33.612 150.651 33.6797 150.854 33.7721C151.076 33.8645 151.221 34.0123 151.288 34.2156C151.362 34.4127 151.399 34.6406 151.399 34.8992V35.6199C151.399 35.8478 151.396 36.1249 151.39 36.4514C151.39 36.7778 151.365 37.1012 151.316 37.4215C151.131 37.6062 150.814 37.7818 150.364 37.9481C149.921 38.1144 149.428 38.1975 148.886 38.1975C148.159 38.1975 147.51 38.0405 146.937 37.7263C146.364 37.4122 145.887 36.9811 145.505 36.4329C145.123 35.897 144.83 35.2626 144.627 34.5297C144.43 33.7906 144.331 33.0053 144.331 32.1738C144.331 31.2314 144.433 30.3784 144.636 29.6146C144.84 28.8509 145.129 28.2134 145.505 27.7022C145.887 27.1725 146.336 26.7752 146.854 26.5103C147.371 26.2393 147.959 26.1038 148.618 26.1038C149.222 26.1038 149.739 26.2208 150.17 26.4549C150.608 26.6828 150.977 26.9908 151.279 27.3788C151.581 27.7668 151.827 28.2072 152.018 28.7C152.209 29.1865 152.369 29.6824 152.499 30.1874H153.256L153.173 25.6049H152.434L152.055 26.2332C151.636 25.9806 151.153 25.7651 150.605 25.5864C150.056 25.4078 149.413 25.3185 148.674 25.3185C147.75 25.3185 146.881 25.491 146.068 25.8359C145.261 26.1747 144.565 26.652 143.98 27.2679C143.377 27.8962 142.909 28.6384 142.576 29.4945C142.25 30.3445 142.086 31.2684 142.086 32.2662C142.086 33.3009 142.259 34.2371 142.604 35.0748C142.949 35.9124 143.414 36.6238 143.999 37.209C144.578 37.7879 145.255 38.2345 146.031 38.5486C146.807 38.8627 147.614 39.0198 148.452 39.0198C149.234 39.0198 150.032 38.9212 150.845 38.7241C151.658 38.5271 152.474 38.2437 153.293 37.8742C153.281 37.7079 153.269 37.4954 153.256 37.2367C153.25 36.978 153.247 36.4791 153.247 35.74V34.7237C153.247 34.4958 153.284 34.2987 153.358 34.1324C153.438 33.96 153.57 33.8275 153.755 33.7351C153.909 33.6612 154.109 33.6058 154.356 33.5688ZM165.239 38.7149H168.768V38.0589C168.608 38.0528 168.408 38.0282 168.168 37.985C167.928 37.9419 167.727 37.8803 167.567 37.8003C167.352 37.6894 167.133 37.5477 166.911 37.3753C166.696 37.1967 166.452 36.9226 166.181 36.553C165.559 35.7153 165.033 35.004 164.602 34.4188C164.177 33.8337 163.641 33.1131 162.994 32.2569C163.462 32.1214 163.89 31.9582 164.278 31.7673C164.666 31.5702 164.999 31.3392 165.276 31.0743C165.578 30.791 165.806 30.4553 165.96 30.0673C166.114 29.6793 166.191 29.2327 166.191 28.7277C166.191 28.1672 166.077 27.6898 165.849 27.2956C165.621 26.8953 165.316 26.5719 164.934 26.3256C164.54 26.073 164.1 25.8913 163.613 25.7805C163.126 25.6634 162.606 25.6049 162.052 25.6049H156V26.2609C156.173 26.2732 156.382 26.304 156.628 26.3533C156.875 26.3964 157.075 26.4457 157.229 26.5011C157.457 26.5873 157.602 26.7136 157.663 26.8799C157.725 27.0462 157.756 27.2371 157.756 27.4527V36.9318C157.756 37.172 157.712 37.3691 157.626 37.5231C157.546 37.6771 157.414 37.7941 157.229 37.8742C157.118 37.9234 156.921 37.9635 156.638 37.9943C156.36 38.0251 156.148 38.0466 156 38.0589V38.7149H161.543V38.0589C161.353 38.0528 161.118 38.0312 160.841 37.9943C160.564 37.9573 160.37 37.9173 160.259 37.8742C160.038 37.7879 159.893 37.6648 159.825 37.5046C159.757 37.3383 159.723 37.1474 159.723 36.9318V32.7743H161.063C161.802 33.7228 162.486 34.6436 163.114 35.5367C163.749 36.4298 164.457 37.4892 165.239 38.7149ZM163.225 27.0554C163.681 27.5174 163.909 28.1456 163.909 28.9402C163.909 29.8764 163.625 30.6186 163.059 31.1667C162.492 31.7088 161.784 31.9798 160.934 31.9798H159.723V26.3533H161.294C162.126 26.3533 162.769 26.5873 163.225 27.0554ZM181.232 29.3467C180.905 28.4905 180.452 27.7607 179.873 27.1571C179.313 26.5658 178.648 26.1069 177.878 25.7805C177.108 25.454 176.289 25.2908 175.42 25.2908C174.583 25.2908 173.779 25.4509 173.009 25.7712C172.245 26.0915 171.574 26.5534 170.995 27.1571C170.41 27.7668 169.951 28.4905 169.618 29.3282C169.286 30.1597 169.119 31.1082 169.119 32.1738C169.119 33.1469 169.276 34.0616 169.591 34.9177C169.911 35.7677 170.348 36.4914 170.902 37.0889C171.457 37.6986 172.119 38.176 172.889 38.5209C173.665 38.8596 174.509 39.029 175.42 39.029C176.276 39.029 177.083 38.8689 177.841 38.5486C178.598 38.2283 179.264 37.7725 179.836 37.1813C180.428 36.5838 180.89 35.8601 181.222 35.0101C181.555 34.1601 181.721 33.2147 181.721 32.1738C181.721 31.139 181.558 30.1967 181.232 29.3467ZM179.245 34.5482C179.091 35.2565 178.842 35.8909 178.497 36.4514C178.164 37.0057 177.733 37.4369 177.203 37.7448C176.674 38.0528 176.079 38.2068 175.42 38.2068C174.718 38.2068 174.115 38.0559 173.609 37.7541C173.104 37.4461 172.686 37.0211 172.353 36.4791C172.008 35.9248 171.756 35.2904 171.595 34.5759C171.435 33.8614 171.355 33.0607 171.355 32.1738C171.355 31.3731 171.429 30.6093 171.577 29.8825C171.731 29.1557 171.962 28.5213 172.27 27.9793C172.596 27.4127 173.018 26.96 173.536 26.6212C174.053 26.2824 174.681 26.1131 175.42 26.1131C176.079 26.1131 176.664 26.2609 177.176 26.5565C177.687 26.846 178.112 27.2525 178.451 27.7761C178.789 28.3058 179.045 28.9463 179.217 29.6978C179.396 30.4492 179.485 31.2745 179.485 32.1738C179.485 33.0484 179.405 33.8399 179.245 34.5482ZM195.866 26.3718C196.199 26.304 196.451 26.267 196.624 26.2609V25.6049H191.265V26.2609C191.462 26.2732 191.745 26.3225 192.115 26.4087C192.491 26.4949 192.786 26.615 193.002 26.769C193.193 26.9045 193.338 27.1909 193.436 27.6282C193.535 28.0594 193.584 28.6168 193.584 29.3005V34.6775C193.584 35.0471 193.532 35.4135 193.427 35.7769C193.322 36.1403 193.144 36.4883 192.891 36.8209C192.626 37.172 192.263 37.4553 191.801 37.6709C191.345 37.8865 190.778 37.9943 190.101 37.9943C189.38 37.9943 188.814 37.8865 188.401 37.6709C187.988 37.4553 187.662 37.1782 187.422 36.8394C187.194 36.5068 187.04 36.1496 186.96 35.7677C186.886 35.3797 186.849 35.0101 186.849 34.659V27.4157C186.849 27.2125 186.883 27.0246 186.95 26.8522C187.024 26.6797 187.166 26.5565 187.375 26.4826C187.499 26.4395 187.69 26.3933 187.948 26.344C188.213 26.2948 188.432 26.267 188.604 26.2609V25.6049H183.144V26.2609C183.298 26.2732 183.495 26.3071 183.735 26.3625C183.976 26.4118 184.173 26.4795 184.327 26.5658C184.542 26.689 184.684 26.8245 184.752 26.9723C184.825 27.1139 184.862 27.2926 184.862 27.5081V35.2596C184.862 35.7523 184.967 36.2266 185.177 36.6824C185.386 37.132 185.697 37.5323 186.11 37.8834C186.529 38.2345 187.046 38.5117 187.662 38.7149C188.278 38.9243 188.98 39.029 189.768 39.029C190.261 39.029 190.775 38.9551 191.311 38.8073C191.853 38.6656 192.368 38.4285 192.854 38.0959C193.347 37.751 193.744 37.3106 194.046 36.7747C194.348 36.2389 194.499 35.6076 194.499 34.8808V29.1804C194.499 28.5398 194.539 27.9978 194.619 27.5543C194.699 27.1109 194.844 26.8183 195.053 26.6766C195.262 26.5411 195.533 26.4395 195.866 26.3718ZM207.313 30.6586C207.584 30.1289 207.719 29.5222 207.719 28.8385C207.719 27.8592 207.338 27.077 206.574 26.4919C205.816 25.9006 204.828 25.6049 203.608 25.6049H197.621V26.2609C197.788 26.2732 197.985 26.2978 198.213 26.3348C198.447 26.3656 198.681 26.421 198.915 26.5011C199.143 26.5873 199.287 26.7167 199.349 26.8891C199.411 27.0616 199.441 27.2556 199.441 27.4712V36.9318C199.441 37.172 199.398 37.3691 199.312 37.5231C199.232 37.6771 199.1 37.7941 198.915 37.8742C198.804 37.9234 198.607 37.9635 198.324 37.9943C198.046 38.0251 197.834 38.0466 197.686 38.0589V38.7149H203.313V38.0589C203.078 38.0528 202.82 38.0312 202.536 37.9943C202.259 37.9573 202.065 37.9173 201.954 37.8742C201.733 37.7879 201.585 37.6648 201.511 37.5046C201.443 37.3383 201.409 37.1474 201.409 36.9318V32.9591H202.878C203.507 32.9591 204.101 32.879 204.661 32.7189C205.222 32.5587 205.736 32.3062 206.204 31.9613C206.679 31.6164 207.048 31.1821 207.313 30.6586ZM205.327 30.1597C205.259 30.4738 205.12 30.7787 204.911 31.0743C204.701 31.3823 204.387 31.641 203.968 31.8504C203.556 32.0537 203.017 32.1553 202.352 32.1553H201.409V26.3625H202.712C203.236 26.3625 203.673 26.4426 204.024 26.6027C204.375 26.7629 204.658 26.9877 204.874 27.2772C205.077 27.5482 205.219 27.8654 205.299 28.2288C205.385 28.5922 205.428 28.9494 205.428 29.3005C205.428 29.553 205.394 29.8394 205.327 30.1597Z" fill="#343949"/>
</svg>
