<svg width="230" height="52" viewBox="0 0 230 52" fill="none" xmlns="http://www.w3.org/2000/svg">
<path fill-rule="evenodd" clip-rule="evenodd" d="M42.0278 10.1118L41.9067 8.73429L41.3466 8.18936C36.0335 3.01251 29.0554 0.106203 21.6685 0.000244141H21.0933C13.5854 0.000244141 6.45584 2.90655 1.03679 8.18936L0.476723 8.73429L0.355627 10.1118C-0.00766077 14.1836 -0.0984828 17.7559 0.0982982 21.0104C0.279942 24.1135 0.718915 26.8381 1.41522 29.366C2.06611 31.6971 2.94405 33.8163 4.09447 35.8295C5.09351 37.5703 6.3196 39.2656 7.8333 41.0064H7.84844C11.5596 45.0901 16.0044 48.2493 17.9898 49.6604L17.9898 49.6604L18.081 49.7253C18.293 49.8766 20.2002 51.2541 20.397 51.4055L21.1841 51.9807L22.168 51.2541L22.6299 50.9208C23.2722 50.4574 24.1606 49.8165 24.3024 49.7101L24.3944 49.6447C26.3802 48.2333 30.8244 45.0746 34.535 41.0064C36.0487 39.2505 37.2748 37.5551 38.2738 35.8144C39.4242 33.8012 40.3022 31.6971 40.953 29.3509C41.6494 26.8381 42.0883 24.0983 42.27 20.9953C42.4668 17.7408 42.3759 14.1836 42.0126 10.0966L42.0278 10.1118ZM39.6059 20.8439C39.5302 22.0397 39.4242 23.2053 39.2728 24.28L39.0307 25.8391C38.849 26.8079 38.6371 27.7464 38.3798 28.6394C37.2748 32.6053 35.4735 35.8749 32.5369 39.2353C28.9646 43.1407 24.6051 46.2286 22.7432 47.5456C22.6867 47.5851 22.5413 47.6903 22.3491 47.8293C22.0268 48.0624 21.5728 48.3908 21.1841 48.6657C20.5635 48.2116 19.7764 47.6515 19.625 47.5456C17.7632 46.2286 13.4037 43.1407 9.83139 39.2353C6.89481 35.8749 5.09351 32.6053 3.98851 28.6394C3.74631 27.7464 3.51926 26.8079 3.35275 25.8542L3.11056 24.3557C2.95919 23.2507 2.83809 22.07 2.76241 20.8439C2.58077 17.7257 2.65645 14.2896 3.01974 10.3388L3.05001 9.93011C7.9544 5.23765 14.3573 2.64922 21.1084 2.64922H21.3355C28.0563 2.66436 34.4441 5.25278 39.3334 9.93011L39.3637 10.3388C39.7118 14.2896 39.8026 17.7257 39.621 20.8439H39.6059ZM20.3356 16.2119L21.1833 17.4077L22.0461 16.2119L22.2429 7.55355L21.1833 9.80896L20.1389 7.55355L20.3356 16.2119ZM24.9231 9.3399L22.5769 16.0607L22.6072 8.29544L24.9231 9.3399ZM23.4694 16.9378L26.9661 10.2321L29.494 10.7922L23.4694 16.9378ZM31.2201 12.7002L24.0149 17.1202L29.9788 11.0049L31.2201 12.7002ZM25.8 16.4843L31.5975 13.2147L33.2322 16.3178L30.9314 18.331L32.0364 16.121L31.2796 14.5165L25.8 16.4843ZM27.5425 20.3746L24.727 20.9044L23.1073 22.7965L23.4706 24.6129L24.0004 22.4029L26.6342 21.9488L27.5425 20.3746ZM21.2222 29.7541L22.1828 28.4732L23.4543 27.9434L23.636 26.793L21.759 27.0201L21.1838 27.792L20.6237 27.0201L18.7467 26.793L18.9283 27.9434L20.1999 28.4732L21.1456 29.7536L19.609 30.7583L17.8682 31.0611L18.3829 32.1207L20.3204 31.6666C20.3204 31.6666 20.9799 30.1828 21.1654 29.7804L21.1838 29.8053L21.202 29.781C21.3879 30.1843 22.0467 31.6666 22.0467 31.6666L23.9842 32.1207L24.4989 31.0611L22.7581 30.7583L21.2222 29.7541ZM25.3929 27.6549L28.8744 23.8404L28.7382 20.8887L29.828 24.4156L25.9076 28.9416L25.3929 27.6549ZM26.0876 32.302L25.8303 30.3947L26.4812 29.5319L28.0403 32.0901L24.362 33.8611L26.0876 32.302ZM35.7458 26.2026L25.3013 16.8933L34.5954 26.5204L32.2643 30.8799L35.7458 26.2026ZM29.7817 22.3421L33.9292 26.6713L31.1138 32.4082L33.0059 27.3978L30.5234 24.6126L29.7817 22.3421ZM32.4752 27.5343L30.1744 25.0215L29.024 26.5504L31.1431 28.9269L29.9776 33.7556L32.4752 27.5343ZM28.7839 26.9291L30.5852 29.1543L29.1623 34.3463L29.6921 30.4409L27.7243 28.0795L28.7839 26.9291ZM25.9965 16.8026L35.9717 25.8545L37.0162 24.3256L25.9965 16.8026ZM35.1395 21.2526L26.8141 16.651L36.4564 23.3718L35.1395 21.2526ZM30.8408 18.4216L33.7774 19.0422L34.6099 20.4045L30.8408 18.4216ZM32.7035 17.3471L31.432 18.225L33.4453 18.5732L32.7035 17.3471ZM27.4364 28.4878L29.2982 30.7735L28.1175 35.6628L28.4505 31.5152L26.8309 29.1841L27.4364 28.4878ZM27.8131 34.8454L27.9796 32.7414L26.3145 33.5588L26.6476 35.8293L27.8131 34.8454ZM25.9365 33.7251L26.3604 36.0714L25.1797 37.0553L24.5893 34.3912L25.9365 33.7251ZM24.8318 37.3732L24.1506 34.6032L22.4553 35.4357L23.3332 38.6296L24.8318 37.3732ZM23.0157 16.6057L25.2862 9.55191L26.5123 10.0666L23.0157 16.6057ZM17.6562 20.9044L14.8407 20.3746L15.749 21.9488L18.3828 22.4029L18.8975 24.6129L19.2759 22.7965L17.6562 20.9044ZM16.9903 27.6549L13.5088 23.8404L13.645 20.8887L12.5552 24.4156L16.2789 29.0173L16.9903 27.6549ZM16.2947 32.302L16.552 30.3947L15.9012 29.5319L14.342 32.0901L18.0203 33.8611L16.2947 32.302ZM18.4595 32.333L19.2163 33.3774L21.1841 33.2866L23.1671 33.3774L23.9239 32.333L23.7423 34.2402L21.1993 35.4058L21.1841 35.2544V35.4058L18.6411 34.2402L18.4595 32.333ZM10.7845 13.2147L16.5819 16.4843L11.1023 14.5165L10.3455 16.121L11.4505 18.331L9.14966 16.3178L10.7845 13.2147ZM17.082 16.8933L6.6526 26.2026L10.119 30.8799L7.78788 26.5204L17.082 16.8933ZM8.45359 26.6713L12.6011 22.3421L11.8594 24.6126L9.37694 27.3978L11.2691 32.4082L8.45359 26.6713ZM12.2074 25.0215L9.90654 27.5343L12.4041 33.7556L11.2386 28.9269L13.3578 26.5504L12.2074 25.0215ZM11.7983 29.1543L13.5996 26.9291L14.6592 28.0795L12.6914 30.4409L13.206 34.3463L11.7983 29.1543ZM18.3682 17.1202L11.163 12.7002L12.4042 11.0049L18.3682 17.1202ZM15.4178 10.2321L18.9145 16.9378L12.89 10.7922L15.4178 10.2321ZM19.8065 16.0607L17.4603 9.3399L19.7762 8.29544L19.8065 16.0607ZM16.385 16.8026L6.40975 25.8545L5.3653 24.3256L16.385 16.8026ZM7.24261 21.2526L15.568 16.651L5.92569 23.3718L7.24261 21.2526ZM11.5407 18.4216L8.60415 19.0422L7.77161 20.4045L11.5407 18.4216ZM9.66477 17.3471L10.9514 18.225L8.9382 18.5732L9.66477 17.3471ZM14.9483 28.4878L13.0865 30.7735L14.2671 35.6628L13.9341 31.5152L15.5538 29.1841L14.9483 28.4878ZM14.5693 34.8454L14.4028 32.7414L16.0679 33.5588L15.7349 35.8293L14.5693 34.8454ZM16.4461 33.7251L16.0223 36.0714L17.203 37.0553L17.7933 34.3912L16.4461 33.7251ZM17.5502 37.3732L18.2162 34.6032L19.9267 35.4357L19.0487 38.6296L17.5502 37.3732ZM20.1544 35.542L19.4278 38.9478L21.1988 40.4464L22.9547 38.9478L22.2281 35.542L21.1988 36.0566L20.1544 35.542ZM17.1129 9.55191L19.3683 16.6057L15.8716 10.0666L17.1129 9.55191ZM61.6146 12.7305L58.5721 33.3017L55.5144 12.7305H51.4729L55.3933 37.9639H61.3724L65.2929 12.7305H61.6146ZM78.9767 37.9639H74.9654L74.2691 33.3925H69.3496L68.6533 37.9639H64.975L69.0468 12.7305H74.9048L78.9767 37.9639ZM69.8793 29.9564H73.7393L71.8018 17.1959L69.8793 29.9564ZM85.0013 12.7305H80.99V37.9639H91.5859V34.3613H85.0013V12.7305ZM97.3525 12.7305V32.1967C97.3525 33.998 98.1548 34.6489 99.4263 34.6489C100.698 34.6489 101.5 33.998 101.5 32.1967V12.7305H105.284V31.9394C105.284 35.9809 103.241 38.2818 99.3204 38.2818C95.3999 38.2818 93.3564 35.9809 93.3564 31.9394V12.7305H97.3525ZM117.304 23.3567H111.809V16.3331H118.727V12.7305H107.798V37.9639H118.727V34.3461H111.809V26.9593H117.304V23.3567ZM120.437 12.7305H132.819V16.3331H128.626V37.9639H124.63V16.3331H120.437V12.7305ZM142.462 37.9639H146.473L142.401 12.7305H136.543L132.471 37.9639H136.15L136.846 33.3925H141.766L142.462 37.9639ZM139.313 17.1959L141.236 29.9564H137.391L139.313 17.1959ZM152.499 12.7305H148.502V37.9639H152.499V12.7305ZM158.674 37.9639V19.6784L163.654 37.9639H167.771V12.7305H164.199V27.8221L160.096 12.7305H155.071V37.9639H158.674ZM178.88 30.6376L181.605 12.7305H187.175V37.9639H183.391V19.86L180.621 37.9639H176.837L173.855 20.1174V37.9639H170.358V12.7305H175.929L178.88 30.6376ZM199.317 23.3567H193.822V16.3331H200.739V12.7305H189.81V37.9639H200.739V34.3461H193.822V26.9593H199.317V23.3567ZM206.613 19.6784V37.9639H203.01V12.7305H208.036L212.138 27.8221V12.7305H215.71V37.9639H211.593L206.613 19.6784ZM229.998 12.7305H217.632V16.3331H221.809V37.9639H225.821V16.3331H229.998V12.7305Z" fill="#343949"/>
</svg>
