<svg width="34" height="24" viewBox="0 0 34 24" fill="none" xmlns="http://www.w3.org/2000/svg">
<path d="M32.7187 3.97595C33.4368 6.48925 33.4368 11.8749 33.4368 11.8749C33.4368 11.8749 33.4368 17.2007 32.7187 19.7738C32.3597 21.21 31.2227 22.2871 29.8464 22.6462C27.2732 23.3044 17.1004 23.3044 17.1004 23.3044C17.1004 23.3044 6.86767 23.3044 4.29453 22.6462C2.9182 22.2871 1.78123 21.21 1.42219 19.7738C0.704102 17.2007 0.704102 11.8749 0.704102 11.8749C0.704102 11.8749 0.704102 6.48925 1.42219 3.97595C1.78123 2.53978 2.9182 1.40281 4.29453 1.04377C6.86767 0.325684 17.1004 0.325684 17.1004 0.325684C17.1004 0.325684 27.2732 0.325684 29.8464 1.04377C31.2227 1.40281 32.3597 2.53978 32.7187 3.97595ZM13.7493 16.722L22.2467 11.8749L13.7493 7.02781V16.722Z" fill="white"/>
</svg>
